<svg width="80" height="71" viewBox="0 0 80 71" fill="none" xmlns="http://www.w3.org/2000/svg">
<g clip-path="url(#clip0_29_3976)">
<path d="M9.82689 55.8826C5.51509 51.8565 6.5634 46.613 9.24097 43.9984C12.3075 41.0038 17.176 40.9527 20.2901 43.8704C23.0649 46.4701 24.1867 51.795 19.8555 55.8845C21.1251 56.3142 22.3431 56.7299 23.5636 57.1392C27.084 58.32 28.7972 60.6865 28.8016 64.3801C28.8026 65.1075 28.814 65.8353 28.7986 66.5626C28.7594 68.4295 27.5435 69.64 25.6393 69.6663C23.7779 69.6921 21.9154 69.6728 20.0535 69.6728C14.8462 69.6728 9.63837 69.6743 4.43106 69.6723C1.9683 69.6713 0.852026 68.5674 0.874352 66.1022C0.885266 64.8842 0.832677 63.6409 1.05196 62.4542C1.495 60.0515 2.94715 58.3642 5.22188 57.4701C6.70479 56.8872 8.23632 56.4268 9.82739 55.8835L9.82689 55.8826ZM26.0065 66.8216C26.0065 65.8655 26.0099 65.0236 26.006 64.1822C25.9955 62.0092 25.0202 60.6111 22.9747 59.9007C21.1365 59.2621 19.2751 58.6881 17.4444 58.0303C16.1093 57.5505 14.7445 57.4324 13.4134 57.8115C10.959 58.5105 8.52209 59.2825 6.11688 60.1353C4.72427 60.629 3.90616 61.7829 3.73351 63.2291C3.5941 64.3945 3.70523 65.5897 3.70523 66.8216H26.0065ZM9.75793 49.621C9.75099 52.4638 11.9989 54.7573 14.8085 54.7747C17.5982 54.7916 19.9017 52.4831 19.9096 49.6632C19.917 46.8313 17.6537 44.5283 14.8506 44.5164C12.0416 44.504 9.76537 46.7861 9.75843 49.6215L9.75793 49.621Z" fill="#0C5ADB"/>
<path d="M70.179 55.884C71.6351 56.3772 73.0128 56.8331 74.3831 57.3104C77.3092 58.3294 79.0933 60.8304 79.1211 63.9401C79.1285 64.784 79.1285 65.6279 79.1211 66.4718C79.1037 68.4146 77.9165 69.6356 75.9722 69.6673C74.3727 69.6936 72.7722 69.6733 71.1722 69.6733C65.7029 69.6733 60.2332 69.6743 54.7639 69.6728C52.3086 69.6718 51.1799 68.554 51.1923 66.1061C51.1978 65.0028 51.1452 63.8825 51.3119 62.7995C51.7281 60.0931 53.3113 58.2758 55.8693 57.3357C57.2565 56.8262 58.6709 56.3925 60.2019 55.882C57.9123 53.844 56.9097 51.3708 57.3249 48.4243C57.6022 46.4532 58.5543 44.8056 60.1027 43.531C63.3146 40.8877 67.995 41.1675 70.876 44.1239C73.3795 46.6933 74.4665 51.8342 70.179 55.884ZM76.3274 66.8131C76.3274 65.8665 76.3309 64.9958 76.3269 64.1256C76.317 62.0022 75.3292 60.5962 73.3358 59.9101C71.4962 59.2765 69.6377 58.6955 67.8065 58.0387C66.4442 57.55 65.052 57.4309 63.6902 57.8219C61.2373 58.5264 58.7964 59.2894 56.3972 60.1576C55.0135 60.6582 54.2147 61.833 54.054 63.2847C53.9275 64.4268 54.0287 65.5941 54.0287 66.8131H76.3274ZM70.2306 49.6487C70.2326 46.8065 67.9772 44.5203 65.1661 44.5154C62.3635 44.5104 60.0814 46.8069 60.0794 49.6344C60.0774 52.4608 62.3576 54.7712 65.1518 54.7742C67.9558 54.7772 70.2286 52.4836 70.2306 49.6487Z" fill="#0C5ADB"/>
<path d="M35.0063 14.696C30.756 10.7677 31.6565 5.48105 34.4323 2.78561C37.5529 -0.245202 42.5067 -0.227837 45.6055 2.83721C48.4091 5.61054 49.1374 10.8699 45.0245 14.6529C45.3138 14.77 45.5564 14.8816 45.8079 14.9679C47.072 15.402 48.3659 15.7627 49.5983 16.2737C52.3002 17.393 53.736 19.4797 53.9428 22.3825C54.0173 23.4253 53.985 24.4786 53.9533 25.5259C53.9031 27.1979 52.6757 28.4664 50.9983 28.4724C43.6622 28.4967 36.326 28.4942 28.9898 28.4734C27.4543 28.4689 26.1783 27.3591 26.0716 25.8747C25.9739 24.5153 25.9327 23.1227 26.1143 21.7787C26.4993 18.93 28.1489 17.0273 30.8741 16.0857C32.2146 15.6223 33.5631 15.1808 35.0058 14.696H35.0063ZM28.8301 25.6063H51.1675C51.1675 24.6522 51.172 23.7806 51.1665 22.9089C51.1531 20.8167 50.1222 19.378 48.1432 18.7072C46.245 18.0637 44.3672 17.3374 42.4318 16.8348C41.3101 16.5436 40.0246 16.3342 38.9316 16.5927C36.3399 17.2059 33.7893 18.0379 31.2804 18.9429C29.7707 19.4871 28.9685 20.7805 28.845 22.3869C28.7651 23.4273 28.8301 24.4786 28.8301 25.6058V25.6063ZM34.919 8.47268C34.9274 11.2857 37.2493 13.6269 40.0132 13.6085C42.7969 13.5902 45.0732 11.2604 45.0697 8.43398C45.0662 5.61054 42.7786 3.31696 39.974 3.32391C37.1759 3.33135 34.9106 5.63882 34.9185 8.47218L34.919 8.47268Z" fill="#0C5ADB"/>
<path d="M68.4951 37.6357C68.4654 38.3575 68.1052 38.8626 67.3317 38.9946C66.5469 39.128 65.9456 38.6959 65.7367 37.8565C65.4281 36.6176 65.2068 35.353 64.8328 34.1355C63.4694 29.7007 61.0354 25.9311 57.6291 22.7867C57.5011 22.6681 57.3701 22.5525 57.2465 22.4295C56.5748 21.7612 56.5038 20.9372 57.064 20.3438C57.6003 19.7757 58.4184 19.7465 59.0926 20.3478C64.1809 24.8868 67.2901 30.5297 68.4624 37.2437C68.4822 37.3579 68.4822 37.4754 68.4951 37.6372V37.6357Z" fill="#0C5ADB"/>
<path d="M11.5095 37.3481C11.9262 34.6889 12.7508 32.0336 13.9668 29.4999C15.6506 25.9908 17.9477 22.9427 20.8674 20.3698C21.5808 19.7407 22.4183 19.7685 22.958 20.3851C23.472 20.9721 23.3976 21.7698 22.7641 22.4113C22.6212 22.5562 22.4649 22.6882 22.3156 22.8266C19.0436 25.8509 16.6761 29.4702 15.289 33.7021C14.8559 35.0228 14.6058 36.4035 14.2818 37.7589C14.0675 38.6559 13.4885 39.1242 12.6843 39.025C11.9168 38.9302 11.4634 38.3324 11.509 37.3481H11.5095Z" fill="#0C5ADB"/>
<path d="M47.0795 69.9063C42.3668 70.7333 37.544 70.7328 32.8333 69.8939C32.8095 69.8899 32.7862 69.8855 32.7624 69.881C31.6764 69.687 31.218 68.9924 31.4164 68.1173C31.6064 67.2768 32.3665 66.9067 33.4317 67.1771C37.8015 68.2855 42.1684 68.284 46.5387 67.1821C47.6153 66.9107 48.3679 67.2635 48.5679 68.0999C48.7762 68.9726 48.3163 69.687 47.2432 69.877C47.1887 69.8865 47.1341 69.8964 47.0795 69.9058V69.9063Z" fill="#0C5ADB"/>
</g>
<defs>
<clipPath id="clip0_29_3976">
<rect width="78.2535" height="70" fill="white" transform="translate(0.873047 0.525391)"/>
</clipPath>
</defs>
</svg>
