<svg width="70" height="38" viewBox="0 0 70 38" fill="none" xmlns="http://www.w3.org/2000/svg">
<g clip-path="url(#clip0_5_40)">
<path fill-rule="evenodd" clip-rule="evenodd" d="M25.6255 8.28737L24.2753 4.27993H31.4889C31.4889 4.27993 36.0659 4.11796 35.7917 8.96246C35.7917 8.96246 36.1223 12.6672 31.7418 13.3914C31.7418 13.3914 33.4226 14.4668 33.7877 16.4921L34.8631 20.6051L32.5218 20.4577L31.6993 16.5976C31.6993 16.5976 31.3621 13.4339 27.7762 13.6238L26.9538 11.6409L31.151 11.7883C31.151 11.7883 33.6397 11.6197 33.7034 8.9618C33.7034 8.9618 34.1886 6.57871 31.4046 6.26208L25.9627 5.98792L25.6255 8.2867V8.28737Z" fill="url(#paint0_linear_5_40)"/>
<path fill-rule="evenodd" clip-rule="evenodd" d="M37.0569 20.6893L40.2632 21.3432L40.1158 6.07285L43.5537 6.05161C43.5537 6.05161 45.2829 6.24146 45.7469 9.02549L46.2322 4.70142L36.0028 4.68018V6.13525H37.0364L37.0576 20.6887L37.0569 20.6893Z" fill="url(#paint1_linear_5_40)"/>
<path d="M44.9921 1.37976H40.4928V1.42955H44.9921V1.37976Z" fill="#4D89C8"/>
<path d="M47.4144 3.74293C47.2126 2.57728 46.5654 2.01038 46.0582 1.74021C45.5072 1.44681 44.9968 1.42955 44.9915 1.42955L44.9928 1.37976C45.0134 1.37976 47.0705 1.46274 47.4635 3.7343L47.4144 3.74293Z" fill="#4D89C8"/>
<path d="M47.4636 3.73889H47.4138V6.27001H47.4636V3.73889Z" fill="#4D89C8"/>
<path d="M45.8391 0.190186H40.4928V0.239971H45.8391V0.190186Z" fill="#4D89C8"/>
<path d="M48.7221 3.10106C48.4825 1.65859 47.7118 0.957606 47.107 0.623708C46.4519 0.261267 45.8445 0.239361 45.8385 0.239361L45.8398 0.189575C45.8644 0.190239 48.3052 0.294457 48.7712 3.09243L48.7221 3.10039V3.10106Z" fill="#4D89C8"/>
<path d="M48.7712 3.09705H48.7214V6.22227H48.7712V3.09705Z" fill="#4D89C8"/>
<path d="M29.6369 1.33728H25.1376V1.38707H29.6369V1.33728Z" fill="#4D89C8"/>
<path d="M22.716 3.70106L22.6669 3.69243C23.0592 1.42087 25.1163 1.33789 25.1369 1.33789L25.1382 1.38768C25.1177 1.38768 23.101 1.47065 22.7153 3.70106H22.716Z" fill="#4D89C8"/>
<path d="M22.7159 3.69641H22.6661V6.22753H22.7159V3.69641Z" fill="#4D89C8"/>
<path d="M29.6369 0.147705H24.2905V0.197491H29.6369V0.147705Z" fill="#4D89C8"/>
<path d="M21.4083 3.05919L21.3591 3.05122C21.6027 1.58818 22.386 0.876571 23.0007 0.537363C23.6665 0.169611 24.2839 0.147705 24.2899 0.147705L24.2912 0.197491C24.2673 0.198155 21.8669 0.299718 21.4076 3.05919H21.4083Z" fill="#4D89C8"/>
<path d="M21.4083 3.05457H21.3585V6.17979H21.4083V3.05457Z" fill="#4D89C8"/>
<path d="M22.7584 16.8718H22.7086V20.6263H22.7584V16.8718Z" fill="#4D89C8"/>
<path d="M25.0791 23.0133C22.9038 22.8168 22.7099 20.6502 22.7086 20.6283L22.7584 20.6243C22.7604 20.6455 22.9516 22.771 25.0844 22.9635L25.0798 23.0133H25.0791Z" fill="#4D89C8"/>
<path d="M29.8765 22.9636H25.0818V23.0134H29.8765V22.9636Z" fill="#4D89C8"/>
<path d="M21.4649 16.8161L21.4152 16.8163L21.4292 21.5406L21.479 21.5405L21.4649 16.8161Z" fill="#4D89C8"/>
<path d="M24.0376 24.1664C21.6107 23.8179 21.4355 21.6353 21.4288 21.5423L21.476 21.5291L21.4786 21.5383C21.4846 21.6293 21.6572 23.7734 24.0449 24.1166L24.0376 24.1657V24.1664Z" fill="#4D89C8"/>
<path d="M24.0421 24.1177L24.042 24.1675L29.9054 24.1818L29.9056 24.132L24.0421 24.1177Z" fill="#4D89C8"/>
<path d="M47.4496 16.9004H47.3998V20.6549H47.4496V16.9004Z" fill="#4D89C8"/>
<path d="M45.0791 23.0413L45.0745 22.9915C47.2046 22.799 47.3932 20.7398 47.4005 20.6522L47.4502 20.6562C47.4429 20.7452 47.2504 22.8448 45.0798 23.0413H45.0791Z" fill="#4D89C8"/>
<path d="M45.0765 22.9915H40.2817V23.0412H45.0765V22.9915Z" fill="#4D89C8"/>
<path d="M48.6934 16.8441L48.681 21.5685L48.7308 21.5686L48.7432 16.8443L48.6934 16.8441Z" fill="#4D89C8"/>
<path d="M46.1207 24.1943L46.1134 24.1451C47.366 23.9652 47.9966 23.2742 48.3053 22.7266C48.6399 22.1318 48.679 21.5722 48.679 21.5669L48.7288 21.5702C48.7275 21.5928 48.5589 23.8444 46.1207 24.1949V24.1943Z" fill="#4D89C8"/>
<path d="M46.1176 24.1436L40.2542 24.1589L40.2543 24.2087L46.1177 24.1934L46.1176 24.1436Z" fill="#4D89C8"/>
<path d="M0.931641 28.7971H4.9809C6.10274 28.7971 6.9637 29.0965 7.56246 29.6959C8.06895 30.2024 8.32186 30.8775 8.32186 31.7205V31.7458C8.32186 32.4627 8.14662 33.0475 7.79679 33.4982C7.44629 33.9496 6.98893 34.2809 6.42402 34.492L8.58805 37.6557H6.30985L4.41134 34.8212H2.87993V37.6557H0.931641V28.7971ZM4.85477 33.0999C5.33537 33.0999 5.70445 32.9858 5.96201 32.7581C6.21957 32.5304 6.34835 32.2264 6.34835 31.8467V31.8214C6.34835 31.3999 6.21293 31.0833 5.94342 30.8722C5.67325 30.6618 5.2982 30.5556 4.81693 30.5556H2.88059V33.0993H4.85477V33.0999Z" fill="#000100"/>
<path d="M10.0809 28.7971H16.7503V30.531H12.0047V32.3279H16.1807V34.0618H12.0047V35.9218H16.8133V37.6557H10.0809V28.7971Z" fill="#000100"/>
<path d="M22.7106 37.8078C22.0607 37.8078 21.458 37.6896 20.9011 37.4533C20.3441 37.217 19.8635 36.8944 19.4586 36.4855C19.0537 36.0766 18.737 35.5933 18.5093 35.0364C18.2817 34.4795 18.1675 33.8847 18.1675 33.2521V33.2268C18.1675 32.5942 18.2817 32.0014 18.5093 31.4485C18.737 30.8962 19.0537 30.4109 19.4586 29.9934C19.8635 29.5759 20.3488 29.2466 20.9137 29.0063C21.4786 28.766 22.1032 28.6459 22.7863 28.6459C23.1998 28.6459 23.5776 28.6797 23.9187 28.7474C24.2606 28.8151 24.5706 28.9081 24.8487 29.0256C25.1269 29.1437 25.3844 29.2871 25.6208 29.4557C25.8571 29.6243 26.0761 29.8102 26.2786 30.0127L25.0386 31.4425C24.6928 31.1305 24.3403 30.8856 23.9818 30.7083C23.6234 30.5311 23.2204 30.4428 22.773 30.4428C22.4019 30.4428 22.0581 30.5145 21.7414 30.6579C21.4248 30.8013 21.1526 30.9998 20.925 31.2527C20.6973 31.5056 20.52 31.799 20.3932 32.1322C20.2665 32.4654 20.2034 32.8219 20.2034 33.2016V33.2268C20.2034 33.6065 20.2665 33.965 20.3932 34.3022C20.52 34.6394 20.6946 34.9348 20.9183 35.1884C21.142 35.4413 21.4115 35.6418 21.7282 35.7892C22.0448 35.9372 22.3926 36.0109 22.7723 36.0109C23.2788 36.0109 23.7063 35.9179 24.0568 35.7327C24.4067 35.5475 24.7545 35.294 25.101 34.9733L26.341 36.2259C26.1133 36.4709 25.877 36.6899 25.632 36.8838C25.3871 37.0776 25.1196 37.2442 24.8282 37.3836C24.5374 37.523 24.2188 37.6286 23.8729 37.7003C23.5271 37.772 23.1388 37.8078 22.7086 37.8078H22.7106Z" fill="#000100"/>
<path d="M31.0634 37.7826C30.3883 37.7826 29.7259 37.6664 29.0766 37.4347C28.4268 37.2031 27.8366 36.8459 27.3049 36.3653L28.4566 34.9859C28.8616 35.3152 29.2771 35.5767 29.7033 35.7705C30.1295 35.9644 30.5954 36.0613 31.1019 36.0613C31.5069 36.0613 31.8208 35.9876 32.0446 35.8396C32.2683 35.6922 32.3798 35.4878 32.3798 35.2256V35.2003C32.3798 35.0735 32.3565 34.962 32.3101 34.8651C32.2636 34.7682 32.1747 34.6772 32.0432 34.5929C31.9125 34.5086 31.7299 34.4243 31.4976 34.34C31.2646 34.2557 30.9625 34.1674 30.5901 34.0745C30.1414 33.965 29.7358 33.8428 29.372 33.7074C29.0083 33.5727 28.6996 33.406 28.446 33.2076C28.1924 33.0098 27.9953 32.7628 27.8559 32.4674C27.7165 32.172 27.6468 31.8049 27.6468 31.3662V31.3409C27.6468 30.936 27.7218 30.5709 27.8732 30.2463C28.0238 29.9217 28.2356 29.6409 28.5078 29.4046C28.7799 29.1683 29.1052 28.987 29.4836 28.8603C29.8619 28.7335 30.2788 28.6704 30.7342 28.6704C31.3841 28.6704 31.9808 28.7673 32.5252 28.9612C33.0695 29.155 33.5693 29.4338 34.0247 29.7962L33.0124 31.2639C32.6161 30.9938 32.2278 30.7813 31.8481 30.6247C31.4684 30.4687 31.0887 30.3903 30.709 30.3903C30.3293 30.3903 30.0445 30.464 29.8546 30.6121C29.6648 30.7601 29.5699 30.9433 29.5699 31.1624V31.1876C29.5699 31.331 29.5971 31.4558 29.6522 31.5606C29.7073 31.6662 29.8062 31.7611 29.9502 31.8454C30.0943 31.9297 30.2908 32.01 30.5404 32.0857C30.7899 32.1614 31.1046 32.2503 31.4856 32.3512C31.9337 32.4694 32.3333 32.6022 32.6845 32.7495C33.0356 32.8976 33.3317 33.0741 33.5726 33.2813C33.8136 33.4884 33.9955 33.7307 34.1183 34.0088C34.2411 34.2869 34.3022 34.6208 34.3022 35.0085V35.0337C34.3022 35.4725 34.2225 35.8628 34.0632 36.204C33.9039 36.5459 33.6815 36.8326 33.3967 37.0643C33.112 37.2966 32.7714 37.4739 32.3765 37.596C31.9815 37.7182 31.5434 37.7792 31.0621 37.7792L31.0634 37.7826Z" fill="#000100"/>
<path d="M38.5346 30.6386H35.8389V28.8417H43.1786V30.6386H40.4829V37.7002H38.5339V30.6386H38.5346Z" fill="#2D7FC1"/>
<path d="M44.6722 28.8417H51.3416V30.5756H46.596V32.3725H50.772V34.1064H46.596V35.9664H51.4046V37.7002H44.6722V28.8417Z" fill="#2D7FC1"/>
<path d="M57.3019 37.8522C56.652 37.8522 56.0493 37.7341 55.4924 37.4978C54.9354 37.2614 54.4548 36.9388 54.0499 36.5299C53.645 36.121 53.3283 35.6378 53.1007 35.0808C52.873 34.5239 52.7588 33.9291 52.7588 33.2965V33.2713C52.7588 32.6387 52.873 32.0459 53.1007 31.4929C53.3283 30.9406 53.645 30.4554 54.0499 30.0378C54.4548 29.6203 54.9401 29.2911 55.505 29.0508C56.0699 28.8105 56.6945 28.6903 57.3776 28.6903C57.7912 28.6903 58.1689 28.7242 58.5101 28.7919C58.8519 28.8596 59.1619 28.9525 59.4401 29.07C59.7182 29.1882 59.9758 29.3315 60.2121 29.5002C60.4484 29.6688 60.6674 29.8546 60.8699 30.0571L59.6299 31.4869C59.2841 31.175 58.9316 30.93 58.5731 30.7528C58.2147 30.5755 57.8117 30.4872 57.3643 30.4872C56.9932 30.4872 56.6494 30.5589 56.3328 30.7023C56.0161 30.8457 55.744 31.0442 55.5163 31.2971C55.2886 31.55 55.1113 31.8434 54.9846 32.1766C54.8578 32.5099 54.7947 32.8663 54.7947 33.246V33.2713C54.7947 33.651 54.8578 34.0094 54.9846 34.3466C55.1113 34.6839 55.2859 34.9793 55.5096 35.2328C55.7333 35.4857 56.0028 35.6862 56.3195 35.8336C56.6361 35.9816 56.984 36.0553 57.3637 36.0553C57.8701 36.0553 58.2976 35.9624 58.6481 35.7772C58.998 35.592 59.3458 35.3384 59.6923 35.0178L60.9323 36.2704C60.7046 36.5153 60.4683 36.7344 60.2234 36.9282C59.9784 37.122 59.7109 37.2887 59.4195 37.4281C59.1287 37.5675 58.8101 37.673 58.4643 37.7447C58.1184 37.8164 57.7301 37.8522 57.2999 37.8522H57.3019Z" fill="#2D7FC1"/>
<path d="M62.4902 28.8417H64.4392V32.3473H68.0331V28.8417H69.982V37.7002H68.0331V34.1442H64.4392V37.7002H62.4902V28.8417Z" fill="#2D7FC1"/>
</g>
<defs>
<linearGradient id="paint0_linear_5_40" x1="30.0391" y1="1.08301" x2="30.0391" y2="23.8033" gradientUnits="userSpaceOnUse">
<stop stop-color="#4E6CB3"/>
<stop offset="0.18" stop-color="#4E6CB3"/>
<stop offset="0.41" stop-color="#4983BF"/>
<stop offset="1" stop-color="#3F9CCE"/>
</linearGradient>
<linearGradient id="paint1_linear_5_40" x1="41.1175" y1="-87.9209" x2="41.1175" y2="113.943" gradientUnits="userSpaceOnUse">
<stop stop-color="#989A9D"/>
<stop offset="1" stop-color="#5A5B5D"/>
</linearGradient>
<clipPath id="clip0_5_40">
<rect width="69.0504" height="37.7045" fill="white" transform="translate(0.931641 0.147705)"/>
</clipPath>
</defs>
</svg>
