<svg width="70" height="38" viewBox="0 0 70 38" fill="none" xmlns="http://www.w3.org/2000/svg">
<g clip-path="url(#clip0_31_12)">
<path fill-rule="evenodd" clip-rule="evenodd" d="M24.8276 8.24037L23.4774 4.23294H30.6911C30.6911 4.23294 35.268 4.07097 34.9939 8.91547C34.9939 8.91547 35.3245 12.6202 30.944 13.3444C30.944 13.3444 32.6247 14.4198 32.9898 16.4451L34.0652 20.5581L31.724 20.4107L30.9015 16.5506C30.9015 16.5506 30.5643 13.3869 26.9784 13.5768L26.1559 11.5939L30.3532 11.7413C30.3532 11.7413 32.8418 11.5727 32.9055 8.9148C32.9055 8.9148 33.3908 6.53172 30.6068 6.21508L25.1648 5.94092L24.8276 8.23971V8.24037Z" fill="white"/>
<path fill-rule="evenodd" clip-rule="evenodd" d="M36.2591 20.6423L39.4653 21.2962L39.3179 6.02586L42.7558 6.00461C42.7558 6.00461 44.485 6.19447 44.9491 8.97849L45.4343 4.65442L35.205 4.63318V6.08825H36.2385L36.2598 20.6417L36.2591 20.6423Z" fill="white"/>
<path d="M44.1946 1.33276H39.6953V1.38255H44.1946V1.33276Z" fill="white"/>
<path d="M46.6163 3.69593C46.4145 2.53028 45.7673 1.96339 45.2601 1.69321C44.7091 1.39981 44.1987 1.38255 44.1934 1.38255L44.1947 1.33276C44.2153 1.33276 46.2724 1.41574 46.6654 3.68731L46.6163 3.69593Z" fill="white"/>
<path d="M46.666 3.69189H46.6162V6.22301H46.666V3.69189Z" fill="white"/>
<path d="M45.0417 0.143188H39.6953V0.192974H45.0417V0.143188Z" fill="white"/>
<path d="M47.9246 3.05406C47.685 1.61159 46.9143 0.910609 46.3096 0.576711C45.6544 0.21427 45.047 0.192364 45.041 0.192364L45.0423 0.142578C45.0669 0.143242 47.5077 0.24746 47.9737 3.04543L47.9246 3.05339V3.05406Z" fill="white"/>
<path d="M47.9734 3.05005H47.9236V6.17528H47.9734V3.05005Z" fill="white"/>
<path d="M28.839 1.29028H24.3397V1.34007H28.839V1.29028Z" fill="white"/>
<path d="M21.9181 3.65406L21.869 3.64544C22.2613 1.37387 24.3185 1.29089 24.3391 1.29089L24.3404 1.34068C24.3198 1.34068 22.3032 1.42366 21.9175 3.65406H21.9181Z" fill="white"/>
<path d="M21.9181 3.64941H21.8683V6.18053H21.9181V3.64941Z" fill="white"/>
<path d="M28.8385 0.100708H23.4922V0.150494H28.8385V0.100708Z" fill="white"/>
<path d="M20.6106 3.01219L20.5615 3.00422C20.8051 1.54118 21.5884 0.829574 22.2031 0.490366C22.8689 0.122614 23.4863 0.100708 23.4923 0.100708L23.4936 0.150494C23.4697 0.151158 21.0693 0.252721 20.61 3.01219H20.6106Z" fill="white"/>
<path d="M20.6105 3.00757H20.5607V6.1328H20.6105V3.00757Z" fill="white"/>
<path d="M21.9609 16.8248H21.9111V20.5793H21.9609V16.8248Z" fill="white"/>
<path d="M24.2816 22.9663C22.1063 22.7698 21.9125 20.6032 21.9111 20.5813L21.9609 20.5773C21.9629 20.5985 22.1541 22.724 24.2869 22.9165L24.2823 22.9663H24.2816Z" fill="white"/>
<path d="M29.0787 22.9166H24.2839V22.9664H29.0787V22.9166Z" fill="white"/>
<path d="M20.6671 16.7691L20.6173 16.7693L20.6313 21.4936L20.6811 21.4935L20.6671 16.7691Z" fill="white"/>
<path d="M23.2398 24.1194C20.8129 23.7709 20.6376 21.5883 20.631 21.4953L20.6781 21.4821L20.6808 21.4913C20.6867 21.5823 20.8593 23.7264 23.2471 24.0696L23.2398 24.1187V24.1194Z" fill="white"/>
<path d="M23.2443 24.0707L23.2441 24.1205L29.1076 24.1348L29.1077 24.085L23.2443 24.0707Z" fill="white"/>
<path d="M46.6513 16.8534H46.6016V20.6079H46.6513V16.8534Z" fill="white"/>
<path d="M44.281 22.9943L44.2764 22.9445C46.4065 22.752 46.5951 20.6928 46.6024 20.6052L46.6522 20.6092C46.6449 20.6982 46.4523 22.7978 44.2817 22.9943H44.281Z" fill="white"/>
<path d="M44.2791 22.9445H39.4844V22.9942H44.2791V22.9445Z" fill="white"/>
<path d="M47.8952 16.7972L47.8828 21.5215L47.9326 21.5216L47.945 16.7973L47.8952 16.7972Z" fill="white"/>
<path d="M45.3229 24.1473L45.3156 24.0981C46.5682 23.9183 47.1988 23.2272 47.5075 22.6796C47.842 22.0848 47.8812 21.5252 47.8812 21.5199L47.931 21.5232C47.9296 21.5458 47.761 23.7974 45.3229 24.1479V24.1473Z" fill="white"/>
<path d="M45.3195 24.0966L39.4561 24.1119L39.4562 24.1617L45.3196 24.1464L45.3195 24.0966Z" fill="white"/>
<path d="M0.133789 28.7501H4.18304C5.30489 28.7501 6.16585 29.0495 6.76461 29.6489C7.2711 30.1554 7.52401 30.8305 7.52401 31.6736V31.6988C7.52401 32.4157 7.34876 33.0005 6.99893 33.4512C6.64844 33.9026 6.19107 34.2339 5.62617 34.445L7.7902 37.6087H5.51199L3.61349 34.7742H2.08208V37.6087H0.133789V28.7501ZM4.05692 33.053C4.53752 33.053 4.9066 32.9388 5.16416 32.7111C5.42172 32.4834 5.5505 32.1794 5.5505 31.7997V31.7745C5.5505 31.3529 5.41508 31.0363 5.14557 30.8252C4.8754 30.6148 4.50035 30.5086 4.01908 30.5086H2.08274V33.0523H4.05692V33.053Z" fill="white"/>
<path d="M9.28308 28.7501H15.9524V30.484H11.2068V32.2809H15.3829V34.0148H11.2068V35.8748H16.0155V37.6087H9.28308V28.7501Z" fill="white"/>
<path d="M21.9132 37.7608C21.2634 37.7608 20.6606 37.6427 20.1037 37.4063C19.5468 37.17 19.0662 36.8474 18.6612 36.4385C18.2563 36.0296 17.9397 35.5463 17.712 34.9894C17.4843 34.4325 17.3701 33.8377 17.3701 33.2051V33.1798C17.3701 32.5472 17.4843 31.9544 17.712 31.4015C17.9397 30.8492 18.2563 30.364 18.6612 29.9464C19.0662 29.5289 19.5514 29.1996 20.1163 28.9593C20.6812 28.719 21.3059 28.5989 21.9889 28.5989C22.4025 28.5989 22.7802 28.6327 23.1214 28.7004C23.4633 28.7681 23.7732 28.8611 24.0514 28.9786C24.3295 29.0967 24.5871 29.2401 24.8234 29.4087C25.0597 29.5773 25.2788 29.7632 25.4812 29.9657L24.2412 31.3955C23.8954 31.0835 23.5429 30.8386 23.1844 30.6613C22.826 30.4841 22.4231 30.3958 21.9756 30.3958C21.6046 30.3958 21.2607 30.4675 20.9441 30.6109C20.6274 30.7543 20.3553 30.9528 20.1276 31.2057C19.8999 31.4586 19.7227 31.752 19.5959 32.0852C19.4691 32.4185 19.406 32.7749 19.406 33.1546V33.1798C19.406 33.5595 19.4691 33.918 19.5959 34.2552C19.7227 34.5924 19.8973 34.8878 20.121 35.1414C20.3447 35.3943 20.6142 35.5948 20.9308 35.7422C21.2474 35.8902 21.5953 35.9639 21.975 35.9639C22.4815 35.9639 22.909 35.8709 23.2595 35.6857C23.6093 35.5005 23.9571 35.247 24.3036 34.9263L25.5436 36.1789C25.3159 36.4239 25.0796 36.643 24.8347 36.8368C24.5897 37.0306 24.3222 37.1972 24.0308 37.3366C23.7401 37.476 23.4214 37.5816 23.0756 37.6533C22.7297 37.725 22.3414 37.7608 21.9113 37.7608H21.9132Z" fill="white"/>
<path d="M30.2656 37.7356C29.5905 37.7356 28.928 37.6194 28.2788 37.3877C27.6289 37.1561 27.0388 36.7989 26.5071 36.3183L27.6588 34.9389C28.0637 35.2682 28.4793 35.5297 28.9054 35.7235C29.3316 35.9174 29.7976 36.0143 30.3041 36.0143C30.709 36.0143 31.023 35.9406 31.2467 35.7926C31.4704 35.6452 31.5819 35.4408 31.5819 35.1786V35.1533C31.5819 35.0265 31.5587 34.915 31.5122 34.8181C31.4658 34.7212 31.3768 34.6303 31.2454 34.5459C31.1146 34.4616 30.9321 34.3773 30.6997 34.293C30.4667 34.2087 30.1647 34.1204 29.7923 34.0275C29.3436 33.918 28.938 33.7958 28.5742 33.6604C28.2104 33.5257 27.9017 33.359 27.6482 33.1606C27.3946 32.9628 27.1974 32.7158 27.058 32.4204C26.9186 32.125 26.8489 31.7579 26.8489 31.3192V31.2939C26.8489 30.889 26.924 30.5239 27.0753 30.1993C27.226 29.8747 27.4377 29.5939 27.7099 29.3576C27.9821 29.1213 28.3073 28.9401 28.6857 28.8133C29.0641 28.6865 29.481 28.6234 29.9363 28.6234C30.5862 28.6234 31.183 28.7203 31.7273 28.9142C32.2716 29.108 32.7715 29.3868 33.2269 29.7492L32.2145 31.2169C31.8182 30.9468 31.4299 30.7343 31.0502 30.5777C30.6705 30.4217 30.2908 30.3434 29.9111 30.3434C29.5314 30.3434 29.2466 30.417 29.0568 30.5651C28.8669 30.7131 28.772 30.8963 28.772 31.1154V31.1406C28.772 31.284 28.7992 31.4088 28.8543 31.5137C28.9094 31.6192 29.0083 31.7141 29.1524 31.7984C29.2964 31.8827 29.4929 31.9631 29.7425 32.0387C29.9921 32.1144 30.3067 32.2034 30.6878 32.3043C31.1358 32.4224 31.5355 32.5552 31.8866 32.7025C32.2378 32.8506 32.5338 33.0271 32.7748 33.2343C33.0158 33.4414 33.1976 33.6837 33.3204 33.9618C33.4433 34.2399 33.5043 34.5738 33.5043 34.9615V34.9867C33.5043 35.4255 33.4247 35.8158 33.2654 36.157C33.106 36.4989 32.8837 36.7856 32.5989 37.0173C32.3141 37.2497 31.9736 37.4269 31.5786 37.549C31.1836 37.6712 30.7455 37.7322 30.2643 37.7322L30.2656 37.7356Z" fill="white"/>
<path d="M37.7368 30.5916H35.041V28.7947H42.3808V30.5916H39.685V37.6533H37.7361V30.5916H37.7368Z" fill="white"/>
<path d="M43.874 28.7947H50.5433V30.5286H45.7977V32.3255H49.9738V34.0594H45.7977V35.9194H50.6064V37.6533H43.874V28.7947Z" fill="white"/>
<path d="M56.5041 37.8052C55.8542 37.8052 55.2515 37.6871 54.6945 37.4508C54.1376 37.2144 53.657 36.8918 53.2521 36.4829C52.8471 36.074 52.5305 35.5908 52.3028 35.0338C52.0751 34.4769 51.9609 33.8821 51.9609 33.2495V33.2243C51.9609 32.5917 52.0751 31.9989 52.3028 31.4459C52.5305 30.8936 52.8471 30.4084 53.2521 29.9908C53.657 29.5733 54.1422 29.2441 54.7071 29.0038C55.272 28.7635 55.8967 28.6433 56.5797 28.6433C56.9933 28.6433 57.371 28.6772 57.7122 28.7449C58.0541 28.8126 58.3641 28.9055 58.6422 29.023C58.9203 29.1412 59.1779 29.2846 59.4142 29.4532C59.6505 29.6218 59.8696 29.8076 60.0721 30.0101L58.8321 31.4399C58.4862 31.128 58.1337 30.883 57.7753 30.7058C57.4168 30.5285 57.0139 30.4402 56.5665 30.4402C56.1954 30.4402 55.8515 30.5119 55.5349 30.6553C55.2183 30.7987 54.9461 30.9972 54.7184 31.2501C54.4907 31.503 54.3135 31.7964 54.1867 32.1297C54.0599 32.4629 53.9968 32.8194 53.9968 33.1991V33.2243C53.9968 33.604 54.0599 33.9624 54.1867 34.2997C54.3135 34.6369 54.4881 34.9323 54.7118 35.1858C54.9355 35.4388 55.205 35.6392 55.5216 35.7866C55.8383 35.9346 56.1861 36.0083 56.5658 36.0083C57.0723 36.0083 57.4998 35.9154 57.8503 35.7302C58.2001 35.545 58.5479 35.2914 58.8945 34.9708L60.1345 36.2234C59.9068 36.4683 59.6705 36.6874 59.4255 36.8812C59.1806 37.0751 58.913 37.2417 58.6216 37.3811C58.3309 37.5205 58.0122 37.626 57.6664 37.6977C57.3206 37.7694 56.9322 37.8052 56.5021 37.8052H56.5041Z" fill="white"/>
<path d="M61.6924 28.7947H63.6413V32.3003H67.2352V28.7947H69.1842V37.6533H67.2352V34.0972H63.6413V37.6533H61.6924V28.7947Z" fill="white"/>
</g>
<defs>
<clipPath id="clip0_31_12">
<rect width="69.0504" height="37.7045" fill="white" transform="translate(0.133789 0.100708)"/>
</clipPath>
</defs>
</svg>
