<svg width="58" height="71" viewBox="0 0 58 71" fill="none" xmlns="http://www.w3.org/2000/svg">
<g clip-path="url(#clip0_29_3950)">
<path d="M10.6408 52.0354C12.7097 50.7997 14.5645 49.7863 16.3149 48.6177C17.819 47.6134 19.326 47.4897 20.9695 48.0903C26.4762 50.1028 31.9784 52.1277 37.5041 54.0869C37.9537 54.2462 38.6529 54.088 39.0923 53.8319C42.2809 51.9749 45.4277 50.0469 48.5975 48.1576C50.6686 46.9233 52.8194 46.6718 54.9714 47.9009C57.5307 49.3626 57.8216 52.3835 55.5292 54.2159C49.6677 58.9008 43.7583 63.5262 37.8655 68.1723C36.3877 69.3376 34.7614 69.6144 32.9103 69.1931C27.3656 67.9313 21.8045 66.7402 16.2466 65.5362C14.0372 65.0576 11.2395 66.7825 10.3144 68.7902C9.97093 69.5354 8.87508 70.2406 8.02506 70.3822C6.49226 70.6376 4.88526 70.4816 3.31043 70.4466C1.79559 70.413 0.928714 69.6388 0.924773 68.086C0.911201 62.7083 0.917111 57.3306 0.918425 51.9529C0.918863 50.3857 1.79253 49.6117 3.28351 49.5563C4.91744 49.4956 6.5564 49.5067 8.19121 49.5528C9.59047 49.592 10.4462 50.3337 10.641 52.0354H10.6408ZM10.4615 64.805C14.9616 62.9327 14.9585 62.9469 18.4127 63.703C23.3162 64.7764 28.2419 65.7558 33.1211 66.9286C34.6603 67.2985 35.829 67.015 36.9785 66.0767C38.9001 64.5086 40.8221 62.9406 42.7706 61.4063C46.3826 58.5623 50.039 55.7734 53.6109 52.8807C54.1781 52.4215 54.8764 51.2954 54.6761 50.9065C54.3351 50.244 53.3655 49.6298 52.5928 49.5342C51.7099 49.4251 50.6463 49.7143 49.8483 50.162C46.6849 51.9374 43.5714 53.8057 40.5023 55.7387C40.0388 56.0306 39.6481 56.8554 39.6652 57.4203C39.7762 61.1071 36.8969 63.3441 33.4471 62.0972C30.4912 61.0287 27.5429 59.9289 24.6522 58.7004C24.532 58.6494 24.4237 58.5708 24.3234 58.4732C23.5597 57.7291 24.2243 56.4339 25.2676 56.6609C25.3054 56.6692 25.3424 56.6795 25.3788 56.6919C28.2355 57.6737 31.0314 58.8294 33.8656 59.8793C35.5261 60.4944 36.9555 59.9885 37.3121 58.6422C37.7224 57.0935 37.0243 56.1002 35.5383 55.572C30.4693 53.7697 25.4263 51.8909 20.322 50.1947C19.4251 49.8965 18.1482 50.0666 17.2783 50.4913C15.2746 51.4696 13.378 52.6854 11.5173 53.9232C11.0191 54.2547 10.5272 55.003 10.5081 55.5757C10.4085 58.5902 10.4615 61.6098 10.4615 64.8055V64.805ZM8.12992 68.1803V51.9053H3.22418V68.1803H8.13013H8.12992Z" fill="#0C5ADB"/>
<path d="M35.931 49.7804C34.7192 49.7802 33.5053 49.739 32.2956 49.7916C31.0643 49.8453 30.5231 49.2721 30.4522 48.0939C30.3616 46.592 30.1705 45.2793 28.5567 44.365C27.1681 43.5781 26.9895 41.3912 28.1399 40.1871C29.2926 38.9802 28.7123 38.1641 27.9604 37.2664C27.5782 36.8102 27.0729 36.4492 26.5953 36.081C20.8699 31.6675 19.136 24.0979 22.3502 17.5138C25.5252 11.0096 32.6984 7.58496 39.624 9.26673C46.5706 10.9537 51.4729 17.3493 51.1546 24.4897C50.9433 29.2282 48.7954 33.0278 45.0869 35.9736C44.5219 36.4226 43.9313 36.8711 43.4799 37.4235C42.791 38.2667 42.5029 39.0608 43.4516 40.1109C44.6834 41.4744 44.5941 43.3094 43.1255 44.2464C41.7509 45.1234 41.5423 46.2942 41.5025 47.5827C41.4497 49.2915 40.7409 49.9878 39.0192 49.8007C38.001 49.6901 36.961 49.7804 35.9308 49.7802L35.931 49.7804ZM39.3383 38.9263C41.0206 37.0863 42.1318 35.51 43.579 34.351C49.5158 29.5962 50.3643 21.1441 45.3452 15.5197C40.3635 9.93726 31.8086 9.73841 26.5891 15.0834C21.2874 20.5129 21.7013 28.9475 27.4184 33.9528C29.0022 35.3395 30.3346 37.0114 32.1334 38.9261H39.3383V38.9263ZM35.5578 43.269C37.1326 43.269 38.7142 43.3496 40.2788 43.2227C40.3549 43.2166 40.4303 43.1981 40.5049 43.1704C41.2879 42.877 41.4072 41.8232 40.7306 41.333C40.5728 41.2186 40.4134 41.142 40.2518 41.1365C37.1663 41.0313 34.0738 41.0392 30.9876 41.1357C30.8815 41.1389 30.7762 41.1771 30.6718 41.2385C29.9474 41.6643 29.9745 42.7334 30.7188 43.1234C30.8171 43.1749 30.9172 43.2092 31.0194 43.2184C32.5215 43.3531 34.0436 43.2675 35.558 43.269H35.5578ZM32.5962 47.5401H39.2151C39.2952 46.8478 39.3624 46.2656 39.4371 45.6202H32.2792C32.4035 46.373 32.4994 46.9534 32.5964 47.5401H32.5962Z" fill="#0C5ADB"/>
<path d="M36.8112 3.34097C36.8103 4.00168 36.9443 4.70101 36.7672 5.31086C36.7342 5.42501 36.6783 5.53284 36.6081 5.6363C36.1834 6.26055 35.2603 6.29307 34.8161 5.68235C34.7432 5.58195 34.6944 5.47936 34.6837 5.37263C34.5473 4.00495 34.5492 2.60584 34.6911 1.23882C34.7018 1.13536 34.7517 1.03604 34.8266 0.939132C35.2863 0.345002 36.1989 0.403716 36.6107 1.0319C36.6814 1.13972 36.7372 1.25169 36.7703 1.36978C36.9415 1.98312 36.8119 2.67983 36.811 3.34054L36.8112 3.34097Z" fill="#0C5ADB"/>
<path d="M24.3648 10.9128C23.77 11.0778 22.9106 11.5753 22.6264 11.3504C21.4027 10.382 20.2548 9.27776 19.2649 8.07138C18.6147 7.27906 19.3938 6.09495 20.0002 6.45662C21.4395 7.31486 22.6608 8.53651 23.93 9.6785C24.2759 9.98975 24.4399 10.4544 24.3648 10.913V10.9128Z" fill="#0C5ADB"/>
<path d="M29.8126 6.01462C30.0405 6.5328 29.8969 7.14657 29.4479 7.49275C29.3553 7.56434 29.2594 7.61498 29.1583 7.63157C28.7883 7.69181 28.1309 7.43774 27.9777 7.13217C27.3061 5.79439 26.7192 4.40619 26.229 2.99246C26.1242 2.68972 26.4495 2.02836 26.7592 1.85375C27.0563 1.68633 27.859 1.79852 27.9764 2.02574C28.6296 3.29105 29.1918 4.60329 29.8128 6.01462H29.8126Z" fill="#0C5ADB"/>
<path d="M49.296 11.316C48.8403 11.82 48.0732 11.9088 47.5227 11.5098C47.4224 11.4371 47.3594 11.3681 47.3401 11.2885C47.2405 10.877 47.2385 10.2508 47.4868 9.98083C48.4655 8.91589 49.4948 7.87605 50.6281 6.98114C51.449 6.33288 52.5963 7.01367 52.2128 7.68397C51.4547 9.00952 50.3577 10.1423 49.296 11.316Z" fill="#0C5ADB"/>
<path d="M43.0412 7.79048C42.6237 8.08187 42.0425 7.93476 41.7999 7.48796C41.5964 7.11297 41.4317 6.76942 41.5123 6.49833C41.921 5.12235 42.5364 3.7968 43.19 2.51141C43.3492 2.19841 44.019 1.90156 44.3522 1.98778C44.6738 2.07116 45.1519 2.75893 45.0647 3.00885C44.5131 4.58803 43.8358 6.12443 43.1624 7.65865C43.1408 7.70776 43.1009 7.74879 43.0414 7.79027L43.0412 7.79048Z" fill="#0C5ADB"/>
<path d="M35.2338 14.7183C35.4192 14.583 35.6453 14.5138 35.8748 14.5245C41.0099 14.7677 45.0529 18.6871 45.2644 23.3184C45.2745 23.5377 45.1862 23.7617 45.0542 23.9876C44.6762 24.6343 43.7386 24.6566 43.3336 24.0262C43.2515 23.8986 43.1918 23.7667 43.1679 23.629C42.4254 19.3389 40.113 17.1448 35.8658 16.6603C35.6294 16.6332 35.4048 16.5029 35.1852 16.3296C34.6627 15.9173 34.6841 15.1189 35.2222 14.7266C35.2261 14.7238 35.2301 14.721 35.2338 14.7181V14.7183Z" fill="#0C5ADB"/>
</g>
<defs>
<clipPath id="clip0_29_3950">
<rect width="56.1677" height="70" fill="white" transform="translate(0.916016 0.525391)"/>
</clipPath>
</defs>
</svg>
