<svg width="64" height="71" viewBox="0 0 64 71" fill="none" xmlns="http://www.w3.org/2000/svg">
<path d="M58.7973 64.1942C58.8323 64.0563 58.8643 63.9887 58.8643 63.9212C58.8686 59.0686 58.8766 54.2162 58.8662 49.3636C58.8645 48.5724 58.5362 48.3142 57.6543 48.314C48.3576 48.3122 39.0606 48.3122 29.7639 48.314C28.7908 48.3142 28.529 48.5779 28.5266 49.5537C28.5222 51.3074 28.5293 53.0611 28.5234 54.8148C28.5203 55.6968 28.0945 56.2199 27.4147 56.2057C26.7528 56.1919 26.3698 55.7019 26.3638 54.8467C26.3585 54.0823 26.3626 53.3179 26.3626 52.5029C26.0208 52.4742 25.7399 52.4466 25.4586 52.4277C19.0656 51.9978 14.0111 49.1717 10.3119 43.942C10.0545 43.5781 9.82394 43.4996 9.41856 43.6407C8.87607 43.8293 8.31106 43.9524 7.75782 44.1114C4.33112 45.0961 2.30508 47.7739 2.29894 51.3412C2.29366 54.4401 2.30014 57.539 2.30167 60.6379C2.3027 62.6317 2.29724 64.6257 2.30798 66.6195C2.3131 67.5843 2.7809 68.2589 3.63872 68.2944C5.2865 68.3625 6.93905 68.3142 8.67534 68.3142C8.67534 68.0024 8.67534 67.7449 8.67534 67.4874C8.67534 65.8538 8.66971 64.2203 8.6779 62.5867C8.68216 61.7074 9.11568 61.1806 9.79069 61.1971C10.4485 61.2133 10.8327 61.7024 10.8361 62.5615C10.8426 64.219 10.8366 65.8766 10.8399 67.5341C10.8404 67.7877 10.8631 68.0411 10.8743 68.2716H23.5993C23.4647 66.1014 24.1733 64.8138 25.8116 64.3726C26.32 64.2357 26.3769 64.0041 26.3696 63.5753C26.35 62.4467 26.349 61.317 26.3721 60.1884C26.3854 59.5405 26.805 59.1344 27.3976 59.1174C27.9911 59.1003 28.4408 59.4862 28.5092 60.1126C28.5455 60.4452 28.5244 60.7844 28.5247 61.1207C28.5261 62.1431 28.5252 63.1657 28.5252 64.1942H58.7975H58.7973ZM22.6267 32.3351C23.6656 32.7826 24.7015 33.2258 25.7828 33.4585C27.328 33.7909 28.714 33.1384 30.0299 32.4274C33.4539 30.5773 36.0141 27.9844 36.393 23.9265C36.6176 21.5219 36.4415 19.0796 36.4415 16.6543C36.4415 16.6183 36.3884 16.5821 36.3253 16.5016C34.6804 16.5016 32.9996 16.5547 31.324 16.4831C30.2063 16.4353 29.0701 16.3144 27.9882 16.0429C25.5454 15.4298 23.5374 14.0602 21.8303 12.1073C20.7576 14.3617 19.1195 15.7869 16.7575 16.3586C16.5849 16.4003 16.3746 16.7559 16.3741 16.966C16.3675 19.2003 16.3641 21.4359 16.4398 23.6685C16.4676 24.4863 16.7079 25.2967 16.8423 26.0595C17.617 29.486 22.6267 32.3351 22.6267 32.3351ZM31.6271 33.9759C28.1277 36.1969 24.7245 36.2052 21.2494 33.9817C21.2494 34.6881 21.2659 35.1873 21.2451 35.6847C21.219 36.3065 21.246 36.9471 21.1033 37.5445C20.6372 39.4948 19.4222 40.81 17.4992 41.3965C15.7682 41.9243 14.0154 42.3804 12.2511 42.8739C15.4575 47.7866 21.7614 50.5105 26.3322 50.2081C26.342 50.001 26.359 49.7897 26.3611 49.5784C26.3819 47.3462 27.5721 46.1521 29.7847 46.1507C32.2098 46.1492 34.6349 46.1526 37.0598 46.1466C37.293 46.1461 37.6133 46.1818 37.7454 46.0511C38.752 45.057 39.722 44.0258 40.8218 42.8828C38.9897 42.3836 37.4209 41.9509 35.8492 41.5294C33.1442 40.8037 31.6557 38.8906 31.6276 36.0846C31.6213 35.4472 31.6265 34.8097 31.6265 33.9762L31.6271 33.9759ZM40.4831 14.3342C40.4013 13.9717 40.3476 13.6952 40.2759 13.4234C38.231 5.65261 30.3459 1.09385 22.5986 3.20192C21.3701 3.53618 21.2497 3.70127 21.2883 4.99756C21.4377 10.01 25.9366 14.3468 30.9892 14.3453C33.8693 14.3445 36.7495 14.3381 39.6294 14.3342C39.8883 14.3339 40.1472 14.3342 40.483 14.3342H40.4831ZM43.6015 68.3384C49.1027 68.3384 54.6038 68.3386 60.105 68.3377C60.345 68.3377 60.59 68.3572 60.8239 68.3164C61.327 68.2286 61.6653 67.931 61.6841 67.4035C61.7042 66.8402 61.3745 66.5133 60.8344 66.4128C60.6245 66.3738 60.404 66.3833 60.1882 66.3833C49.1859 66.3821 38.1835 66.3819 27.1812 66.3842C26.9423 66.3842 26.6322 66.3253 26.4796 66.4483C26.1738 66.6947 25.7558 67.0472 25.7546 67.3573C25.7534 67.6697 26.1602 68.0379 26.4695 68.276C26.6413 68.4082 26.9791 68.3365 27.2421 68.3365C32.6952 68.3389 38.1484 68.3382 43.6015 68.3382V68.3384ZM40.8566 25.0347C40.4461 25.0132 40.2575 24.9967 40.0687 24.9948C39.661 24.9907 39.2472 24.9542 38.8481 25.0131C38.6735 25.0388 38.4226 25.2428 38.3863 25.4058C37.7657 28.1856 36.2424 30.3957 34.1441 32.2575C33.9938 32.3909 33.8102 32.5928 33.8059 32.7669C33.7762 33.9583 33.7904 35.1509 33.7904 36.3422C33.9756 36.3776 34.0673 36.4094 34.1598 36.4111C37.1245 36.4631 39.9273 34.4643 40.4623 31.5373C40.8452 29.4419 40.7401 27.2574 40.8568 25.0345L40.8566 25.0347ZM18.8639 4.83895C15.4539 7.01473 13.2486 10.1469 12.3609 14.3185C13.4611 14.3185 14.4884 14.3511 15.5131 14.3117C17.6175 14.2309 19.4365 12.7763 19.9789 10.7535C20.089 10.3429 20.2215 9.87421 20.1279 9.48401C19.758 7.9418 19.3023 6.42005 18.864 4.83878L18.8639 4.83895ZM19.083 36.3222C19.083 35.3395 19.0844 34.3402 19.0827 33.3408C19.081 32.3027 19.0651 32.2749 18.0446 32.2751C16.6596 32.2754 15.5801 31.7682 14.9155 30.4992C14.8409 30.357 14.6622 30.18 14.5258 30.1745C13.7406 30.1435 12.9536 30.1593 12.1679 30.1593C12.1861 33.7325 15.6897 36.8664 19.0828 36.322L19.083 36.3222ZM38.6773 16.5356V22.7752H40.6912V16.5356H38.6773ZM12.1547 16.5407V22.7803H14.1694V16.5407H12.1547ZM48.576 46.1123C48.4186 45.9324 48.3477 45.8386 48.2641 45.7576C46.828 44.3668 44.9461 44.0012 43.1112 43.5341C43.0066 43.5075 42.8202 43.576 42.7532 43.6628C42.1466 44.4509 41.5582 45.253 40.9187 46.1123H48.576ZM12.1626 25.0325V27.9943C12.9783 27.9943 13.7413 27.9955 14.5045 27.994C15.0043 27.9929 15.12 27.6297 15.0313 27.2729C14.8428 26.5152 14.5722 25.7781 14.3353 25.0325H12.1628H12.1626ZM9.89693 27.909V24.9071L9.94656 22.5832C9.94656 20.7582 9.91655 19.057 9.95765 17.3578C9.98306 16.3052 10.0368 15.2415 10.2136 14.206C11.5514 6.37707 18.0084 0.838379 26.1044 0.536008C33.6122 0.255637 40.5734 5.55694 42.3782 13.0274C42.7297 14.4819 42.8134 16.0147 42.891 17.5182C42.976 19.1619 42.9103 20.8133 42.9103 22.5932L42.9001 25.6809C42.9321 26.9531 42.9152 28.2267 42.9101 29.4998C42.89 34.4278 39.7964 37.9437 34.8495 38.7263C35.2862 38.9404 35.7027 39.2272 36.1631 39.3567C39.1868 40.2065 42.214 41.0457 45.2522 41.8416C47.6904 42.4803 49.6945 43.7172 51.162 45.7987C51.3022 45.9977 51.668 46.1309 51.9315 46.1349C53.8526 46.1628 55.7744 46.1473 57.6961 46.1507C59.7735 46.1543 61.0259 47.3727 61.0324 49.4517C61.0469 54.1116 61.0462 58.7715 61.0258 63.4314C61.0234 63.9872 61.1399 64.2527 61.7294 64.427C63.1529 64.8481 64.0178 66.2788 63.8433 67.7245C63.6618 69.2271 62.4488 70.3651 60.8847 70.4891C60.5981 70.5118 60.3086 70.5005 60.0204 70.5005C41.6212 70.5009 23.2217 70.4814 4.82245 70.5253C2.50104 70.5309 0.868437 69.7943 0.134766 67.4995C0.134766 61.6844 0.134766 55.8692 0.134766 50.0541C0.176378 49.9199 0.230951 49.7882 0.257897 49.6511C1.05075 45.6019 3.44823 43.053 7.42032 41.9627C10.4481 41.1317 13.4754 40.2987 16.495 39.4387C17.0375 39.2842 17.5415 38.9943 18.0632 38.7668C18.0419 38.7004 18.0205 38.6342 17.9992 38.5679C15.8112 38.361 13.9337 37.4986 12.4037 35.9259C10.854 34.3328 10.0961 32.3813 9.93548 30.1871L9.8971 27.909H9.89693Z" fill="#0C5ADB"/>
</svg>
