<svg width="68" height="68" viewBox="0 0 68 68" fill="none" xmlns="http://www.w3.org/2000/svg">
<g clip-path="url(#clip0_1_810)">
<path d="M22.1123 0.0886503C22.1123 0.0886503 45.9723 -0.761351 58.1123 17.1686C70.2523 35.0986 72.7023 50.5286 53.5023 59.7586C34.3023 68.9886 13.2223 71.0486 6.25227 58.8186C-0.717725 46.5886 -7.76772 4.04865 22.1123 0.0886503Z" fill="#2859D3"/>
</g>
<g clip-path="url(#clip1_1_810)">
<path d="M36.1534 16.624C36.6351 16.9676 36.6816 17.2088 36.3648 17.7399C35.9159 18.4925 35.4655 19.2436 35.0296 19.9723C35.634 20.414 36.2602 20.8019 36.8051 21.2821C38.784 23.0292 39.7901 25.2471 39.8751 27.8827C39.8904 28.3462 39.6608 28.5874 39.2046 28.6208C39.1159 28.6273 39.0266 28.623 38.938 28.623C33.5665 28.623 28.1943 28.623 22.8229 28.623C22.0368 28.623 21.8472 28.4261 21.8981 27.651C22.1146 24.3216 23.6786 21.8284 26.5547 20.1488C26.6114 20.1154 26.6666 20.0791 26.7567 20.0224C26.5402 19.6577 26.328 19.2996 26.1145 18.9414C25.8696 18.531 25.6219 18.1227 25.3786 17.7123C25.0785 17.2074 25.1308 16.964 25.6059 16.6255C25.7171 16.6255 25.8282 16.6255 25.9401 16.6255C26.0992 16.7897 26.2917 16.932 26.4109 17.1209C26.8664 17.8452 27.3044 18.5811 27.7352 19.3206C27.8376 19.4965 27.9328 19.5437 28.1289 19.479C29.9618 18.8761 31.799 18.8761 33.6326 19.479C33.8266 19.5429 33.9239 19.5001 34.0271 19.3228C34.4571 18.5833 34.8959 17.8481 35.3521 17.1238C35.4691 16.932 35.6609 16.7889 35.82 16.624C35.9311 16.624 36.0423 16.624 36.1542 16.624H36.1534ZM38.6525 27.4033C38.3633 24.7684 37.1647 22.7045 34.9032 21.3693C32.1267 19.7296 29.2956 19.7928 26.5867 21.5378C24.485 22.8912 23.3699 24.8941 23.1084 27.4033H38.6525Z" fill="white"/>
<path d="M31.4787 44.8195H30.2778C30.2778 44.9437 30.2778 45.0614 30.2778 45.1783C30.2778 46.2462 30.2938 47.3141 30.2735 48.3813C30.24 50.0878 28.6702 51.1942 27.0734 50.6559C26.1254 50.3362 25.4897 49.41 25.4795 48.3043C25.4701 47.2698 25.4774 46.2353 25.4774 45.2016C25.4774 45.0817 25.4774 44.9619 25.4774 44.8013C25.2398 44.8013 25.0313 44.8057 24.8235 44.8013C23.4149 44.7693 22.363 43.9666 21.9903 42.6118C21.909 42.3161 21.8821 41.9979 21.8814 41.6899C21.8741 37.8193 21.8763 33.9487 21.877 30.0788C21.877 29.4149 22.0681 29.2216 22.7277 29.2216C28.1558 29.2216 33.5847 29.2216 39.0128 29.2216C39.6964 29.2216 39.8787 29.4061 39.8787 30.0963C39.8787 33.9443 39.8802 37.7924 39.8787 41.6412C39.8787 43.5939 38.6699 44.8006 36.7165 44.8035C36.5857 44.8035 36.4542 44.8035 36.2806 44.8035C36.2806 44.9619 36.282 45.0912 36.2806 45.2205C36.266 46.3981 36.3045 47.58 36.2203 48.7533C36.1375 49.9018 35.0885 50.7743 33.9152 50.8004C32.7776 50.8259 31.7395 49.9868 31.5361 48.8615C31.491 48.6116 31.483 48.353 31.4816 48.098C31.4758 47.0112 31.4794 45.9244 31.4794 44.8209L31.4787 44.8195ZM23.0764 30.4377V30.8264C23.0764 33.7402 23.0764 36.654 23.0764 39.5679C23.0764 40.3132 23.0684 41.0586 23.0786 41.8032C23.0931 42.8951 23.7942 43.5881 24.8831 43.6012C25.1948 43.6048 25.5057 43.6012 25.8173 43.6019C26.4879 43.6034 26.6768 43.7886 26.6768 44.449C26.6775 45.7275 26.6775 47.0068 26.6768 48.2854C26.6768 48.8339 26.8845 49.2625 27.3996 49.495C28.1965 49.8538 29.0654 49.2785 29.0741 48.3762C29.0864 47.0417 29.0763 45.7072 29.0792 44.3727C29.0806 43.8271 29.3022 43.607 29.8514 43.6026C30.5074 43.5983 31.1641 43.6005 31.8201 43.6019C32.487 43.6026 32.6781 43.793 32.6788 44.4541C32.6795 45.7552 32.6751 47.0562 32.681 48.3573C32.6831 48.9312 32.9941 49.3664 33.4939 49.5335C34.2966 49.8015 35.0688 49.2291 35.0768 48.3377C35.0885 47.0141 35.0783 45.6912 35.0812 44.3676C35.0819 43.8199 35.2977 43.6085 35.8534 43.6019C36.1425 43.5983 36.4331 43.5838 36.7208 43.6041C37.9042 43.6884 38.6961 42.8544 38.6881 41.655C38.6641 38.0409 38.6793 34.4267 38.6793 30.8118V30.437H23.0771L23.0764 30.4377Z" fill="white"/>
<path d="M21.2777 35.5062C21.2777 36.8843 21.29 38.2624 21.2741 39.6405C21.2588 40.9873 20.2505 41.9005 18.9399 41.785C17.8575 41.6898 17.086 40.7585 17.0831 39.5184C17.0773 36.8509 17.078 34.1833 17.0867 31.5157C17.0875 31.231 17.1231 30.9353 17.2051 30.6636C17.4979 29.6967 18.4503 29.1177 19.495 29.2441C20.4321 29.3574 21.2385 30.1972 21.2588 31.1714C21.2893 32.6156 21.2668 34.0605 21.2668 35.5055C21.2704 35.5055 21.2741 35.5055 21.2777 35.5055V35.5062ZM20.0776 35.5411C20.0776 34.1513 20.0834 32.7623 20.0754 31.3726C20.0718 30.7595 19.6526 30.3752 19.0801 30.4319C18.5934 30.4798 18.2839 30.8597 18.2825 31.4482C18.2781 34.1608 18.2803 36.8727 18.2818 39.5853C18.2818 39.6739 18.2912 39.7633 18.3065 39.8504C18.3922 40.3306 18.7707 40.627 19.2552 40.5972C19.7405 40.5667 20.0725 40.194 20.0754 39.6434C20.0819 38.2762 20.0776 36.909 20.0776 35.5418V35.5411Z" fill="white"/>
<path d="M44.677 35.5135C44.677 36.8473 44.6814 38.181 44.6756 39.5148C44.6705 40.6779 44.082 41.477 43.0505 41.7436C41.8562 42.0531 40.5834 41.1406 40.4948 39.9107C40.4861 39.7887 40.481 39.6667 40.481 39.5446C40.4802 36.8545 40.4781 34.1652 40.481 31.4751C40.4824 30.4355 40.9837 29.6822 41.8409 29.3553C43.0679 28.8882 44.6886 29.6851 44.6777 31.478C44.6698 32.8227 44.6763 34.1681 44.6763 35.5128L44.677 35.5135ZM41.6804 35.5098C41.6804 35.8099 41.6804 36.1099 41.6804 36.4099C41.6804 37.4996 41.6746 38.5886 41.684 39.6783C41.6891 40.2391 42.077 40.6132 42.6051 40.5987C43.1464 40.5835 43.4769 40.1795 43.4769 39.5156C43.4791 36.848 43.4784 34.1797 43.4769 31.5121C43.4769 31.3908 43.4689 31.2666 43.4464 31.1474C43.3607 30.7007 42.996 30.4123 42.5427 30.4253C42.0371 30.4399 41.6862 30.8147 41.6833 31.3748C41.6767 32.7529 41.6811 34.1318 41.6804 35.5098Z" fill="white"/>
<path d="M27.8878 24.2708C27.8769 24.4204 27.8943 24.5955 27.8456 24.7495C27.7635 25.0074 27.5274 25.0466 27.2979 25.0205C26.9673 24.9827 26.5075 25.2013 26.3586 24.7568C26.2525 24.4393 26.2481 24.0288 26.3549 23.7136C26.5184 23.2305 27.0044 23.4913 27.3516 23.4404C27.5776 23.4077 27.789 23.4825 27.8529 23.7252C27.8972 23.893 27.8783 24.0775 27.8885 24.2715L27.8878 24.2708Z" fill="white"/>
<path d="M33.8803 24.2046C33.8803 24.1044 33.8774 24.0049 33.8818 23.9046C33.8847 23.8385 33.8782 23.7615 33.9087 23.7092C34.1942 23.2195 34.6678 23.4862 35.0587 23.4477C35.3209 23.4222 35.4415 23.6315 35.4604 23.8835C35.464 23.9278 35.4626 23.9722 35.4633 24.0165C35.4822 25.0045 35.4539 25.0328 34.4789 25.0226C34.0046 25.0175 33.884 24.8991 33.8803 24.4364C33.8803 24.3586 33.8803 24.2809 33.8803 24.2032V24.2046Z" fill="white"/>
</g>
<defs>
<clipPath id="clip0_1_810">
<rect width="67.41" height="67.26" fill="white" transform="translate(0.162231 0.088623)"/>
</clipPath>
<clipPath id="clip1_1_810">
<rect width="27.599" height="34.1757" fill="white" transform="translate(17.0795 16.624)"/>
</clipPath>
</defs>
</svg>
