<svg width="68" height="68" viewBox="0 0 68 68" fill="none" xmlns="http://www.w3.org/2000/svg">
<g clip-path="url(#clip0_13_1147)">
<path d="M22.0759 0.0886503C22.0759 0.0886503 45.9359 -0.761351 58.0759 17.1686C70.2159 35.0986 72.6659 50.5286 53.4659 59.7586C34.2659 68.9886 13.1859 71.0486 6.2159 58.8186C-0.754102 46.5886 -7.8041 4.04865 22.0759 0.0886503Z" fill="#2859D3"/>
</g>
<path d="M13.8292 23.6775C14.6339 23.39 15.4266 23.1064 16.2193 22.8227C21.0259 21.1029 25.8324 19.3831 30.6377 17.6586C30.7839 17.6062 30.9038 17.6169 31.0428 17.6667C36.5686 19.6463 42.0956 21.6234 47.6222 23.6013C47.6881 23.6247 47.7527 23.652 47.8292 23.6818C47.7132 24.3739 47.5992 25.0583 47.4832 25.7427C47.0467 28.316 46.6097 30.8894 46.1723 33.4627C45.5959 36.8542 45.0043 40.2427 44.4564 43.6388C44.3692 44.1789 44.1571 44.4744 43.6777 44.7308C39.4488 46.9924 35.2347 49.2825 31.0194 51.5692C30.8753 51.6475 30.7729 51.6386 30.6343 51.5636C26.2617 49.1947 21.8871 46.8297 17.5111 44.4672C17.3802 44.3965 17.3173 44.3122 17.2922 44.1623C16.777 41.0915 16.2563 38.0216 15.7356 34.9512C15.1473 31.4826 14.5582 28.0145 13.9699 24.5459C13.9227 24.2665 13.879 23.9867 13.8292 23.6775ZM16.57 25.3287C16.6724 25.9403 16.7647 26.5004 16.8599 27.0596C17.3649 30.0384 17.8711 33.0172 18.3756 35.9964C18.7476 38.1923 19.1186 40.3879 19.4876 42.5843C19.5114 42.7257 19.5637 42.8198 19.7001 42.8931C23.3501 44.8548 26.9979 46.8212 30.6441 48.7906C30.7691 48.8583 30.866 48.8664 30.9952 48.7965C34.618 46.8433 38.2416 44.8923 41.8695 42.9489C42.059 42.8471 42.1428 42.724 42.1772 42.5183C42.4879 40.643 42.8059 38.769 43.1238 36.895C43.7673 33.1053 44.4117 29.3156 45.0608 25.5268C45.0927 25.3398 45.0514 25.261 44.864 25.1925C40.244 23.4982 35.6271 21.7954 31.0075 20.1003C30.9017 20.0616 30.7559 20.0637 30.6496 20.1025C26.8738 21.4867 23.1006 22.8777 19.3265 24.2674C18.4628 24.5855 17.5986 24.902 16.7358 25.2227C16.6695 25.2474 16.6138 25.3002 16.5704 25.3287H16.57Z" fill="white"/>
<path d="M40.545 41.931C40.0498 41.931 39.5975 41.931 39.1453 41.931C38.6777 41.931 38.2102 41.9238 37.743 41.9349C37.5721 41.9387 37.4816 41.8893 37.4055 41.7266C36.813 40.4536 36.2043 39.1886 35.613 37.9148C35.5246 37.724 35.4205 37.6665 35.2143 37.6669C32.2887 37.6745 29.363 37.6745 26.4373 37.6669C26.2261 37.6665 26.13 37.738 26.0437 37.9237C25.4508 39.1963 24.8425 40.4621 24.2478 41.7338C24.1764 41.8863 24.0935 41.937 23.9278 41.9353C23.0709 41.9259 22.2135 41.9298 21.3566 41.9281C21.2886 41.9281 21.2206 41.9217 21.1194 41.9166C24.3562 34.8223 27.5803 27.7557 30.829 20.6349C34.0748 27.7493 37.2984 34.8146 40.5454 41.9315L40.545 41.931ZM30.8286 27.8344C29.7447 30.1224 28.6833 32.3627 27.616 34.6157H34.0416C32.9709 32.3558 31.9112 30.1194 30.8286 27.8344Z" fill="white"/>
<defs>
<clipPath id="clip0_13_1147">
<rect width="67.41" height="67.26" fill="white" transform="translate(0.125854 0.088623)"/>
</clipPath>
</defs>
</svg>
