<svg width="70" height="71" viewBox="0 0 70 71" fill="none" xmlns="http://www.w3.org/2000/svg">
<path d="M56.8928 24.018C54.8127 32.134 50.5894 39.5417 44.6651 45.4661C38.7407 51.3905 31.333 55.6137 23.217 57.6939C16.9724 59.2834 11.667 53.9139 11.667 47.468V44.5514C11.667 42.9414 12.9766 41.6493 14.5778 41.4889C17.2335 41.2271 19.8404 40.5999 22.3245 39.6251L26.7578 44.0584C33.9763 40.5983 39.7972 34.7774 43.2574 27.5589L38.8241 23.1255C39.7999 20.6415 40.428 18.0347 40.6907 15.3789C40.8482 13.7747 42.1403 12.468 43.7503 12.468H46.667C53.1128 12.468 58.4824 17.7734 56.8928 24.018Z" stroke="#0C5ADB" stroke-width="4" stroke-linecap="round" stroke-linejoin="round"/>
</svg>
