<svg width="60" height="66" viewBox="0 0 60 66" fill="none" xmlns="http://www.w3.org/2000/svg">
<path d="M59.4951 7.04092L3.95987 0.223592C1.86087 -0.0321681 1.2342e-06 1.60822 1.2342e-06 3.72486V62.2234C1.2342e-06 64.1724 1.57866 65.7511 3.52773 65.7511H55.9674C57.9164 65.7511 59.4951 64.1724 59.4951 62.2234V7.04092Z" fill="#FF9A62"/>
<path d="M33.659 41.0163L35.6832 38.9921C35.9558 38.7229 36.3007 38.5385 36.6761 38.4615C37.0515 38.3845 37.4411 38.4182 37.7977 38.5583L40.2647 39.5433C40.6251 39.6896 40.9341 39.9393 41.1528 40.2609C41.3715 40.5826 41.4901 40.9617 41.4937 41.3507V45.8689C41.4916 46.1335 41.436 46.3949 41.3302 46.6374C41.2244 46.88 41.0706 47.0986 40.8781 47.2801C40.6856 47.4616 40.4584 47.6023 40.2101 47.6937C39.9618 47.785 39.6976 47.8252 39.4333 47.8118C22.1463 46.7365 18.6582 32.0972 17.9986 26.4945C17.9679 26.2194 17.9959 25.9409 18.0806 25.6773C18.1654 25.4138 18.305 25.1712 18.4902 24.9655C18.6754 24.7597 18.9021 24.5956 19.1554 24.4837C19.4086 24.3719 19.6827 24.315 19.9595 24.3167H24.3242C24.7137 24.3178 25.0939 24.4355 25.416 24.6545C25.738 24.8735 25.9872 25.1839 26.1315 25.5457L27.1165 28.0127C27.2613 28.3679 27.2982 28.7578 27.2227 29.1339C27.1472 29.51 26.9625 29.8555 26.6918 30.1272L24.6676 32.1514C24.6676 32.1514 25.8333 40.0403 33.659 41.0163Z" fill="white"/>
</svg>
