<svg width="61" height="66" viewBox="0 0 61 66" fill="none" xmlns="http://www.w3.org/2000/svg">
<path d="M0.982422 7.04092L56.5176 0.223592C58.6166 -0.0321681 60.4775 1.60822 60.4775 3.72486V62.2234C60.4775 64.1724 58.8989 65.7511 56.9498 65.7511H4.51015C2.56108 65.7511 0.982422 64.1724 0.982422 62.2234V7.04092Z" fill="#2975FF"/>
<path d="M42.3965 24.3972H19.0632C17.459 24.3972 16.1611 25.7097 16.1611 27.3139L16.1465 44.8139C16.1465 46.4181 17.459 47.7306 19.0632 47.7306H42.3965C44.0007 47.7306 45.3132 46.4181 45.3132 44.8139V27.3139C45.3132 25.7097 44.0007 24.3972 42.3965 24.3972ZM42.3965 30.2306L30.7299 37.5222L19.0632 30.2306V27.3139L30.7299 34.6056L42.3965 27.3139V30.2306Z" fill="white"/>
</svg>
