<svg width="80" height="71" viewBox="0 0 80 71" fill="none" xmlns="http://www.w3.org/2000/svg">
<g clip-path="url(#clip0_140_290)">
<path d="M9.82689 55.8827C5.51509 51.8566 6.5634 46.6131 9.24097 43.9985C12.3075 41.0039 17.176 40.9528 20.2901 43.8705C23.0649 46.4702 24.1867 51.7951 19.8555 55.8847C21.1251 56.3143 22.3431 56.7301 23.5636 57.1394C27.084 58.3201 28.7972 60.6866 28.8016 64.3803C28.8026 65.1076 28.814 65.8354 28.7986 66.5627C28.7594 68.4296 27.5434 69.6402 25.6393 69.6665C23.7779 69.6923 21.9154 69.6729 20.0535 69.6729C14.8462 69.6729 9.63837 69.6744 4.43106 69.6724C1.9683 69.6714 0.852026 68.5676 0.874352 66.1023C0.885266 64.8843 0.832677 63.641 1.05196 62.4543C1.495 60.0516 2.94715 58.3643 5.22188 57.4703C6.70479 56.8873 8.23632 56.4269 9.82739 55.8837L9.82689 55.8827ZM26.0065 66.8217C26.0065 65.8657 26.0099 65.0237 26.006 64.1823C25.9955 62.0093 25.0202 60.6112 22.9747 59.9008C21.1365 59.2623 19.2751 58.6882 17.4444 58.0304C16.1093 57.5506 14.7445 57.4326 13.4134 57.8116C10.959 58.5106 8.52209 59.2826 6.11688 60.1354C4.72427 60.6291 3.90616 61.7831 3.73351 63.2293C3.5941 64.3947 3.70523 65.5898 3.70523 66.8217H26.0065ZM9.75793 49.6211C9.75099 52.4639 11.9989 54.7575 14.8085 54.7748C17.5982 54.7917 19.9017 52.4832 19.9096 49.6633C19.917 46.8314 17.6537 44.5284 14.8506 44.5165C12.0416 44.5041 9.76537 46.7863 9.75843 49.6216L9.75793 49.6211Z" fill="#0C5ADB"/>
<path d="M70.1788 55.8841C71.635 56.3773 73.0127 56.8332 74.383 57.3105C77.3091 58.3295 79.0932 60.8305 79.121 63.9402C79.1284 64.7841 79.1284 65.628 79.121 66.4719C79.1036 68.4147 77.9164 69.6357 75.9721 69.6674C74.3726 69.6937 72.7721 69.6734 71.1721 69.6734C65.7028 69.6734 60.2331 69.6744 54.7638 69.6729C52.3085 69.6719 51.1798 68.5541 51.1922 66.1063C51.1977 65.0029 51.1451 63.8826 51.3118 62.7996C51.728 60.0932 53.3112 58.2759 55.8692 57.3358C57.2563 56.8263 58.6708 56.3927 60.2018 55.8822C57.9122 53.8441 56.9095 51.3709 57.3248 48.4244C57.6021 46.4533 58.5542 44.8057 60.1026 43.5312C63.3145 40.8878 67.9949 41.1676 70.8759 44.124C73.3793 46.6935 74.4663 51.8343 70.1788 55.8841ZM76.3273 66.8132C76.3273 65.8666 76.3308 64.9959 76.3268 64.1257C76.3169 62.0023 75.3291 60.5963 73.3357 59.9102C71.4961 59.2766 69.6376 58.6957 67.8064 58.0388C66.444 57.5501 65.0519 57.4311 63.6901 57.822C61.2372 58.5265 58.7963 59.2895 56.397 60.1577C55.0134 60.6583 54.2146 61.8332 54.0539 63.2848C53.9273 64.4269 54.0286 65.5943 54.0286 66.8132H76.3273ZM70.2304 49.6489C70.2324 46.8066 67.9771 44.5204 65.166 44.5155C62.3634 44.5105 60.0813 46.8071 60.0793 49.6345C60.0773 52.4609 62.3575 54.7713 65.1516 54.7743C67.9557 54.7773 70.2285 52.4837 70.2304 49.6489Z" fill="#0C5ADB"/>
<path d="M35.0064 14.6965C30.7561 10.7682 31.6566 5.48154 34.4324 2.7861C37.553 -0.244713 42.5068 -0.227349 45.6056 2.8377C48.4091 5.61103 49.1375 10.8704 45.0246 14.6534C45.3138 14.7705 45.5564 14.8821 45.808 14.9684C47.0721 15.4025 48.366 15.7632 49.5984 16.2742C52.3002 17.3935 53.736 19.4802 53.9429 22.383C54.0173 23.4258 53.9851 24.4791 53.9533 25.5264C53.9032 27.1983 52.6758 28.4669 50.9984 28.4729C43.6622 28.4972 36.3261 28.4947 28.9899 28.4739C27.4544 28.4694 26.1784 27.3596 26.0717 25.8752C25.974 24.5158 25.9328 23.1232 26.1144 21.7792C26.4994 18.9304 28.149 17.0278 30.8742 16.0862C32.2147 15.6228 33.5632 15.1812 35.0059 14.6965H35.0064ZM28.8301 25.6068H51.1676C51.1676 24.6527 51.1721 23.781 51.1666 22.9094C51.1532 20.8172 50.1223 19.3784 48.1432 18.7077C46.2451 18.0642 44.3672 17.3379 42.4319 16.8353C41.3101 16.5441 40.0247 16.3347 38.9317 16.5932C36.34 17.2064 33.7894 18.0384 31.2805 18.9433C29.7708 19.4876 28.9686 20.781 28.845 22.3874C28.7651 23.4278 28.8301 24.4791 28.8301 25.6063V25.6068ZM34.9191 8.47316C34.9275 11.2862 37.2493 13.6274 40.0132 13.609C42.797 13.5907 45.0732 11.2609 45.0697 8.43447C45.0663 5.61103 42.7786 3.31745 39.9741 3.3244C37.1759 3.33184 34.9106 5.63931 34.9186 8.47267L34.9191 8.47316Z" fill="#0C5ADB"/>
<path d="M68.4952 37.6363C68.4654 38.3582 68.1053 38.8632 67.3318 38.9952C66.5469 39.1286 65.9456 38.6965 65.7368 37.8571C65.4282 36.6182 65.2069 35.3536 64.8328 34.1361C63.4695 29.7013 61.0355 25.9318 57.6291 22.7873C57.5011 22.6688 57.3701 22.5532 57.2466 22.4301C56.5749 21.7618 56.5039 20.9378 57.064 20.3444C57.6003 19.7764 58.4184 19.7471 59.0927 20.3484C64.1809 24.8874 67.2901 30.5303 68.4625 37.2444C68.4823 37.3585 68.4823 37.476 68.4952 37.6378V37.6363Z" fill="#0C5ADB"/>
<path d="M11.5095 37.3486C11.9262 34.6894 12.7508 32.0341 13.9668 29.5004C15.6506 25.9913 17.9477 22.9432 20.8674 20.3703C21.5808 19.7412 22.4183 19.769 22.958 20.3856C23.472 20.9726 23.3976 21.7703 22.7641 22.4118C22.6212 22.5567 22.4649 22.6886 22.3156 22.8271C19.0436 25.8514 16.6761 29.4706 15.289 33.7026C14.8559 35.0233 14.6058 36.404 14.2818 37.7594C14.0675 38.6564 13.4885 39.1247 12.6843 39.0255C11.9168 38.9307 11.4634 38.3329 11.509 37.3486H11.5095Z" fill="#0C5ADB"/>
<path d="M47.0793 69.9071C42.3666 70.7341 37.5438 70.7336 32.8331 69.8947C32.8093 69.8907 32.786 69.8863 32.7621 69.8818C31.6761 69.6878 31.2177 68.9932 31.4162 68.1181C31.6062 67.2776 32.3662 66.9075 33.4314 67.1779C37.8013 68.2863 42.1681 68.2848 46.5385 67.1829C47.6151 66.9115 48.3677 67.2642 48.5676 68.1007C48.776 68.9734 48.3161 69.6878 47.243 69.8778C47.1884 69.8872 47.1338 69.8972 47.0793 69.9066V69.9071Z" fill="#0C5ADB"/>
</g>
<defs>
<clipPath id="clip0_140_290">
<rect width="78.2535" height="70" fill="white" transform="translate(0.873047 0.525757)"/>
</clipPath>
</defs>
</svg>
