<svg width="24" height="25" viewBox="0 0 24 25" fill="none" xmlns="http://www.w3.org/2000/svg">
<path d="M20.0693 3.31885H3.93068C3.66617 3.31885 3.4125 3.42392 3.22546 3.61096C3.03843 3.798 2.93335 4.05167 2.93335 4.31618V20.4548C2.93335 20.7193 3.03843 20.973 3.22546 21.16C3.4125 21.3471 3.66617 21.4521 3.93068 21.4521H12.6165V14.4255H10.2592V11.7055H12.6165V9.6655C12.5677 9.18656 12.6242 8.70274 12.7822 8.24797C12.9401 7.79319 13.1957 7.37848 13.5309 7.03292C13.8661 6.68736 14.2728 6.41932 14.7226 6.24759C15.1723 6.07587 15.6542 6.00462 16.1344 6.03884C16.8401 6.0345 17.5454 6.07083 18.2469 6.14764V8.59564H16.8053C15.6629 8.59564 15.4453 9.13964 15.4453 9.92844V11.6783H18.1653L17.8117 14.3983H15.4453V21.4521H20.0693C20.2003 21.4521 20.33 21.4264 20.451 21.3762C20.572 21.3261 20.6819 21.2526 20.7745 21.16C20.8672 21.0674 20.9406 20.9575 20.9907 20.8365C21.0409 20.7155 21.0667 20.5858 21.0667 20.4548V4.31618C21.0667 4.18521 21.0409 4.05552 20.9907 3.93452C20.9406 3.81352 20.8672 3.70357 20.7745 3.61096C20.6819 3.51835 20.572 3.44489 20.451 3.39477C20.33 3.34464 20.2003 3.31885 20.0693 3.31885Z" fill="white"/>
</svg>
