<svg width="26" height="26" viewBox="0 0 26 26" fill="none" xmlns="http://www.w3.org/2000/svg">
<path d="M12.5505 10.563C11.2893 10.563 10.2646 11.5877 10.2646 12.8488C10.2646 14.11 11.2893 15.1347 12.5505 15.1347C13.8116 15.1347 14.8363 14.11 14.8363 12.8488C14.8363 11.5877 13.8116 10.563 12.5505 10.563Z" fill="white"/>
<path d="M17.891 8.80278C17.7662 8.48092 17.6151 8.25759 17.3786 8.01455C17.1422 7.77151 16.9123 7.627 16.5904 7.5022C16.3474 7.41024 15.9861 7.29857 15.3161 7.26573C14.5935 7.23289 14.3768 7.22632 12.5441 7.22632C10.7115 7.22632 10.4948 7.23289 9.77221 7.26573C9.10222 7.29857 8.74094 7.41024 8.49791 7.5022C8.17605 7.627 7.95271 7.77808 7.70968 8.01455C7.47321 8.25759 7.32213 8.48092 7.19733 8.80278C7.10537 9.04581 6.9937 9.40709 6.96086 10.0771C6.92802 10.7996 6.92145 11.0164 6.92145 12.849C6.92145 14.6816 6.92802 14.8984 6.96086 15.621C6.9937 16.291 7.10537 16.6522 7.19733 16.8953C7.32213 17.2171 7.47321 17.4405 7.70968 17.6835C7.95271 17.92 8.17605 18.071 8.49791 18.1958C8.74094 18.2878 9.10222 18.3995 9.77221 18.4323C10.4948 18.4651 10.7115 18.4717 12.5441 18.4717C14.3768 18.4717 14.5935 18.4651 15.3161 18.4323C15.9861 18.3995 16.3474 18.2878 16.5904 18.1958C16.9123 18.071 17.1356 17.92 17.3786 17.6835C17.6217 17.4405 17.7662 17.2171 17.891 16.8953C17.9829 16.6522 18.0946 16.291 18.1274 15.621C18.1603 14.8984 18.1668 14.6816 18.1668 12.849C18.1668 11.0164 18.1603 10.7996 18.1274 10.0771C18.0946 9.40709 17.9829 9.04581 17.891 8.80278ZM12.5507 16.3632C10.6064 16.3632 9.02996 14.7868 9.02996 12.8425C9.02996 10.8982 10.6064 9.3217 12.5507 9.3217C14.495 9.3217 16.0715 10.8982 16.0715 12.8425C16.0715 14.7868 14.495 16.3632 12.5507 16.3632ZM16.2094 10.0048C15.7562 10.0048 15.3883 9.63699 15.3883 9.18376C15.3883 8.73052 15.7562 8.36268 16.2094 8.36268C16.6626 8.36268 17.0305 8.73052 17.0305 9.18376C17.0305 9.63699 16.6626 10.0048 16.2094 10.0048Z" fill="white"/>
<path d="M12.5505 0.342285C5.64696 0.342285 0.0505371 5.93871 0.0505371 12.8423C0.0505371 19.7459 5.64696 25.3423 12.5505 25.3423C19.4541 25.3423 25.0505 19.7459 25.0505 12.8423C25.0505 5.93871 19.4541 0.342285 12.5505 0.342285ZM19.3621 15.6668C19.3293 16.3959 19.2111 16.8951 19.0403 17.3286C18.8629 17.7819 18.633 18.1628 18.2521 18.5438C17.8711 18.9248 17.4901 19.1613 17.0369 19.332C16.6033 19.5028 16.1041 19.6145 15.375 19.6473C14.6459 19.6802 14.4094 19.6867 12.5505 19.6867C10.6916 19.6867 10.4552 19.6802 9.72605 19.6473C8.99694 19.6145 8.49773 19.4963 8.0642 19.332C7.61097 19.1547 7.22999 18.9248 6.84901 18.5438C6.46803 18.1628 6.23157 17.7819 6.06078 17.3286C5.89 16.8951 5.77833 16.3959 5.74549 15.6668C5.71265 14.9377 5.70608 14.7012 5.70608 12.8423C5.70608 10.9834 5.71265 10.7469 5.74549 10.0178C5.77833 9.28868 5.89657 8.78947 6.06078 8.35595C6.23813 7.90272 6.46803 7.52174 6.84901 7.14076C7.22999 6.75978 7.61097 6.52331 8.0642 6.35253C8.49773 6.18175 8.99694 6.07008 9.72605 6.03067C10.4552 5.99783 10.6916 5.99126 12.5505 5.99126C14.4094 5.99126 14.6459 5.99783 15.375 6.03067C16.1041 6.06351 16.6033 6.18175 17.0369 6.35253C17.4901 6.52988 17.8711 6.75978 18.2521 7.14076C18.633 7.52174 18.8695 7.90272 19.0403 8.35595C19.2111 8.78947 19.3227 9.28868 19.3621 10.0178C19.395 10.7469 19.4016 10.9834 19.4016 12.8423C19.4016 14.7012 19.395 14.9377 19.3621 15.6668Z" fill="white"/>
</svg>
