<svg width="24" height="25" viewBox="0 0 24 25" fill="none" xmlns="http://www.w3.org/2000/svg">
<path d="M12.9426 3.7991C13.6116 3.79653 14.2807 3.80326 14.9495 3.81927L15.1274 3.82569C15.3327 3.83302 15.5354 3.84219 15.7802 3.85319C16.7556 3.89903 17.4213 4.05306 18.0053 4.27951C18.6104 4.51239 19.1201 4.82777 19.6299 5.33752C20.096 5.79557 20.4567 6.34964 20.687 6.9612C20.9134 7.54522 21.0674 8.21174 21.1133 9.18723C21.1243 9.43111 21.1334 9.63464 21.1408 9.84001L21.1463 10.0179C21.1626 10.6864 21.1696 11.3551 21.1674 12.0239L21.1683 12.7078V13.9088C21.1705 14.5779 21.1635 15.2469 21.1472 15.9158L21.1417 16.0936C21.1344 16.299 21.1252 16.5016 21.1142 16.7464C21.0684 17.7219 20.9125 18.3875 20.687 18.9715C20.4574 19.5837 20.0966 20.1382 19.6299 20.5961C19.1714 21.0621 18.6171 21.4228 18.0053 21.6532C17.4213 21.8796 16.7556 22.0337 15.7802 22.0795C15.5354 22.0905 15.3327 22.0997 15.1274 22.107L14.9495 22.1125C14.2807 22.1288 13.6116 22.1358 12.9426 22.1336L12.2587 22.1345H11.0585C10.3895 22.1368 9.72048 22.1298 9.05164 22.1134L8.87377 22.1079C8.65613 22.1 8.43853 22.0909 8.221 22.0804C7.24551 22.0346 6.5799 21.8787 5.99497 21.6532C5.38316 21.4234 4.82899 21.0626 4.37129 20.5961C3.90467 20.138 3.54361 19.5835 3.31328 18.9715C3.08683 18.3875 2.9328 17.7219 2.88696 16.7464C2.87675 16.5288 2.86758 16.3113 2.85945 16.0936L2.85487 15.9158C2.83797 15.2469 2.83033 14.5779 2.83195 13.9088V12.0239C2.82939 11.3551 2.83612 10.6864 2.85212 10.0179L2.85854 9.84001C2.86587 9.63464 2.87504 9.43111 2.88604 9.18723C2.93188 8.21082 3.08591 7.54613 3.31236 6.9612C3.54282 6.34934 3.90459 5.79542 4.3722 5.33844C4.8296 4.87155 5.38342 4.51016 5.99497 4.27951C6.5799 4.05306 7.24459 3.89903 8.221 3.85319L8.87377 3.82569L9.05164 3.82111C9.72016 3.80421 10.3889 3.79657 11.0576 3.79818L12.9426 3.7991ZM12.0001 8.38319C11.3927 8.3746 10.7897 8.48681 10.2261 8.7133C9.66242 8.9398 9.14941 9.27606 8.71686 9.70254C8.2843 10.129 7.94082 10.6372 7.70638 11.1976C7.47194 11.758 7.35121 12.3594 7.35121 12.9668C7.35121 13.5743 7.47194 14.1756 7.70638 14.736C7.94082 15.2964 8.2843 15.8046 8.71686 16.2311C9.14941 16.6576 9.66242 16.9938 10.2261 17.2203C10.7897 17.4468 11.3927 17.559 12.0001 17.5504C13.2159 17.5504 14.3819 17.0675 15.2416 16.2078C16.1012 15.3481 16.5842 14.1821 16.5842 12.9664C16.5842 11.7506 16.1012 10.5846 15.2416 9.72492C14.3819 8.86523 13.2159 8.38319 12.0001 8.38319ZM12.0001 10.2168C12.3655 10.2101 12.7285 10.2762 13.068 10.4114C13.4075 10.5465 13.7167 10.748 13.9775 11.0039C14.2383 11.2599 14.4454 11.5653 14.5869 11.9022C14.7283 12.2392 14.8012 12.6009 14.8012 12.9663C14.8013 13.3318 14.7285 13.6935 14.5872 14.0305C14.4459 14.3675 14.2388 14.673 13.9781 14.929C13.7174 15.1851 13.4083 15.3866 13.0689 15.5219C12.7294 15.6572 12.3664 15.7234 12.001 15.7168C11.2716 15.7168 10.572 15.427 10.0562 14.9112C9.54036 14.3954 9.25059 13.6958 9.25059 12.9664C9.25059 12.2369 9.54036 11.5373 10.0562 11.0215C10.572 10.5057 11.2716 10.2159 12.001 10.2159L12.0001 10.2168ZM16.8134 7.00796C16.5176 7.0198 16.2379 7.14562 16.0328 7.35908C15.8278 7.57253 15.7132 7.85706 15.7132 8.15307C15.7132 8.44907 15.8278 8.7336 16.0328 8.94706C16.2379 9.16051 16.5176 9.28633 16.8134 9.29817C17.1174 9.29817 17.4088 9.17743 17.6238 8.96251C17.8387 8.74759 17.9594 8.45609 17.9594 8.15215C17.9594 7.8482 17.8387 7.55671 17.6238 7.34179C17.4088 7.12687 17.1174 7.00613 16.8134 7.00613V7.00796Z" fill="white"/>
</svg>
