<svg width="13" height="12" viewBox="0 0 13 12" fill="none" xmlns="http://www.w3.org/2000/svg">
<path d="M10.7718 9.87633L8.56655 7.67109C9.09747 6.9643 9.38408 6.10399 9.38311 5.22C9.38311 2.96203 7.54608 1.125 5.28811 1.125C3.03015 1.125 1.19312 2.96203 1.19312 5.22C1.19312 7.47797 3.03015 9.315 5.28811 9.315C6.1721 9.31596 7.03241 9.02936 7.73921 8.49844L9.94444 10.7037C10.0561 10.8035 10.2017 10.8567 10.3513 10.8525C10.501 10.8483 10.6434 10.787 10.7493 10.6811C10.8551 10.5753 10.9165 10.4329 10.9206 10.2832C10.9248 10.1335 10.8716 9.98796 10.7718 9.87633ZM2.36311 5.22C2.36311 4.64149 2.53466 4.07597 2.85607 3.59496C3.17747 3.11394 3.63429 2.73904 4.16877 2.51765C4.70324 2.29627 5.29136 2.23834 5.85875 2.3512C6.42615 2.46406 6.94733 2.74264 7.3564 3.15171C7.76547 3.56078 8.04405 4.08197 8.15691 4.64936C8.26977 5.21675 8.21185 5.80487 7.99046 6.33935C7.76908 6.87382 7.39417 7.33064 6.91316 7.65205C6.43214 7.97345 5.86662 8.145 5.28811 8.145C4.51264 8.14407 3.7692 7.8356 3.22086 7.28726C2.67251 6.73892 2.36405 5.99547 2.36311 5.22Z" fill="white"/>
</svg>
