<svg width="69" height="68" viewBox="0 0 69 68" fill="none" xmlns="http://www.w3.org/2000/svg">
<g clip-path="url(#clip0_1_826)">
<path d="M22.5941 0.0886503C22.5941 0.0886503 46.4541 -0.761351 58.5941 17.1686C70.7341 35.0986 73.1841 50.5286 53.9841 59.7586C34.7841 68.9886 13.7041 71.0486 6.73409 58.8186C-0.235914 46.5886 -7.28591 4.04865 22.5941 0.0886503Z" fill="#2859D3"/>
</g>
<path d="M24.511 50.6236C24.2561 50.5643 23.9994 50.5108 23.7462 50.4449C22.3855 50.0888 21.2927 49.3057 20.3625 48.281C18.8463 46.611 17.917 44.6206 17.2784 42.4844C16.4743 39.7951 16.0999 37.0407 16.296 34.2404C16.5835 30.1441 19.4346 26.6058 23.297 25.7331C25.0454 25.3378 26.7381 25.5508 28.3974 26.1873C29.0562 26.44 29.7332 26.645 30.3959 26.8879C30.81 27.0394 31.2071 27.0354 31.6233 26.891C32.738 26.5046 33.8366 26.0357 34.9816 25.7795C38.3822 25.0182 41.199 26.099 43.4694 28.6912C43.7947 29.0624 44.0777 29.4707 44.4071 29.8959C43.9632 30.0278 43.5638 30.1388 43.1694 30.2644C40.6441 31.0689 38.9322 33.5857 39.1159 36.2189C39.3079 38.9786 41.3399 41.2373 44.0207 41.6737C44.3028 41.7196 44.5836 41.7713 44.9241 41.8306C44.6803 42.5396 44.4659 43.2318 44.2061 43.9061C43.5282 45.663 42.6234 47.2849 41.2703 48.6215C40.2417 49.6377 39.0561 50.37 37.5929 50.5746C37.564 50.5786 37.5381 50.6071 37.5109 50.624H36.251C35.0195 50.4787 33.9195 49.9484 32.7862 49.492C31.4103 48.938 30.026 49.077 28.6787 49.6979C28.1006 49.964 27.5016 50.1913 26.8977 50.3927C26.5367 50.5131 26.148 50.5496 25.7719 50.624H24.5119L24.511 50.6236ZM42.9938 42.9876C39.8628 41.8858 37.9401 39.7599 37.6879 36.4466C37.4365 33.144 38.9973 30.7378 41.8787 29.1654C41.8644 29.1395 41.8568 29.1181 41.8435 29.1016C41.8225 29.0758 41.7994 29.0522 41.7748 29.0299C39.73 27.1428 37.3817 26.5358 34.704 27.3799C33.8099 27.6616 32.9292 27.9856 32.0445 28.2967C31.351 28.541 30.6629 28.5423 29.9685 28.2989C29.0838 27.9887 28.196 27.6861 27.3091 27.3817C26.0767 26.9588 24.8243 26.8888 23.5559 27.1852C20.3728 27.9295 17.9803 30.8893 17.7601 34.3684C17.5654 37.4463 18.0556 40.4476 19.1565 43.3343C19.7711 44.9459 20.5885 46.4448 21.8462 47.6602C22.9578 48.7343 24.2476 49.3262 25.8361 49.102C26.6004 48.9941 27.3082 48.7374 27.9945 48.3929C29.0727 47.8518 30.2176 47.6179 31.4255 47.6932C32.4577 47.7578 33.3985 48.1032 34.3269 48.5418C36.1199 49.3886 37.8906 49.4519 39.5424 48.1852C41.2837 46.8495 42.2312 44.9811 42.9943 42.9876H42.9938Z" fill="white"/>
<path d="M30.2711 24.7606C30.2194 22.4225 30.465 20.1945 32.2518 18.4545C33.2456 17.4869 34.4869 17.0082 35.8338 16.8179C36.6587 16.7016 37.498 16.6855 38.3301 16.624C38.5534 19.4435 37.8287 22.4782 35.1786 23.8857C34.1459 24.4343 33.0326 24.6843 31.8769 24.7552C31.3608 24.7868 30.8407 24.7606 30.2711 24.7606ZM31.7749 23.292C33.267 23.1699 34.6402 22.8289 35.6519 21.6617C36.5054 20.6767 36.7871 19.4831 36.8598 18.2107C33.4591 18.3306 31.9211 20.4204 31.7749 23.292Z" fill="white"/>
<defs>
<clipPath id="clip0_1_826">
<rect width="67.41" height="67.26" fill="white" transform="translate(0.644043 0.088623)"/>
</clipPath>
</defs>
</svg>
