<svg width="60" height="67" viewBox="0 0 60 67" fill="none" xmlns="http://www.w3.org/2000/svg">
<path d="M59.4951 7.64493L3.95987 0.827596C1.86087 0.571836 1.2342e-06 2.21223 1.2342e-06 4.32886V62.8274C1.2342e-06 64.7764 1.57866 66.3551 3.52773 66.3551H55.9674C57.9164 66.3551 59.4951 64.7764 59.4951 62.8274V7.64493Z" fill="#55D7AF"/>
<path d="M29.7473 35.9389C28.7804 35.9389 27.853 35.5548 27.1693 34.871C26.4856 34.1873 26.1015 33.26 26.1015 32.293C26.1015 31.3261 26.4856 30.3988 27.1693 29.7151C27.853 29.0313 28.7804 28.6472 29.7473 28.6472C30.7143 28.6472 31.6416 29.0313 32.3253 29.7151C33.009 30.3988 33.3931 31.3261 33.3931 32.293C33.3931 32.7718 33.2988 33.2459 33.1156 33.6882C32.9324 34.1306 32.6639 34.5325 32.3253 34.871C31.9868 35.2096 31.5848 35.4781 31.1425 35.6614C30.7002 35.8446 30.2261 35.9389 29.7473 35.9389ZM29.7473 22.0847C27.0399 22.0847 24.4434 23.1602 22.5289 25.0747C20.6145 26.9891 19.539 29.5856 19.539 32.293C19.539 39.9493 29.7473 51.2514 29.7473 51.2514C29.7473 51.2514 39.9556 39.9493 39.9556 32.293C39.9556 29.5856 38.8801 26.9891 36.9657 25.0747C35.0513 23.1602 32.4547 22.0847 29.7473 22.0847Z" fill="white"/>
</svg>
