<svg width="70" height="71" viewBox="0 0 70 71" fill="none" xmlns="http://www.w3.org/2000/svg">
<g clip-path="url(#clip0_140_571)">
<path d="M19.6003 49.3345C20.3429 49.1179 21.1412 49.2052 21.8194 49.5772C22.4977 49.9491 23.0004 50.5752 23.217 51.3179C23.4336 52.0605 23.3463 52.8587 22.9744 53.5369C22.6024 54.2152 21.9763 54.7179 21.2337 54.9345C19.7753 55.3604 18.7253 55.8095 18.0516 56.2179C18.7457 56.6349 19.8424 57.1016 21.3649 57.5362C24.7337 58.4987 29.5549 59.1345 35.0003 59.1345C40.4457 59.1345 45.267 58.4987 48.6357 57.5362C50.1612 57.1016 51.2549 56.6349 51.9491 56.2179C51.2782 55.8095 50.2282 55.3604 48.7699 54.9345C48.039 54.7084 47.4262 54.2041 47.0636 53.5304C46.701 52.8567 46.6177 52.0674 46.8316 51.3328C47.0454 50.5982 47.5394 49.9771 48.207 49.6033C48.8745 49.2295 49.6623 49.133 50.4003 49.3345C52.3487 49.9033 54.1337 50.6324 55.5045 51.5687C56.7732 52.4408 58.3337 53.9604 58.3337 56.2179C58.3337 58.5016 56.7353 60.0329 55.4462 60.9049C54.052 61.8441 52.2291 62.5762 50.237 63.1449C46.2178 64.297 40.8337 64.9678 35.0003 64.9678C29.167 64.9678 23.7828 64.297 19.7637 63.1449C17.7716 62.5762 15.9487 61.8441 14.5545 60.9049C13.2653 60.0299 11.667 58.5016 11.667 56.2179C11.667 53.9604 13.2274 52.4408 14.4962 51.5687C15.867 50.6324 17.652 49.9033 19.6003 49.3345ZM35.0003 6.63452C40.8019 6.63452 46.3659 8.9392 50.4683 13.0416C54.5706 17.1439 56.8753 22.7079 56.8753 28.5095C56.8753 35.9995 52.792 42.0895 48.5628 46.4179C46.8816 48.121 45.0751 49.6955 43.1582 51.1283C41.4257 52.4291 37.4649 54.8674 37.4649 54.8674C36.7137 55.2944 35.8644 55.5189 35.0003 55.5189C34.1362 55.5189 33.287 55.2944 32.5357 54.8674C30.5692 53.729 28.6684 52.4806 26.8424 51.1283C24.9248 49.6965 23.1182 48.1219 21.4378 46.4179C17.2087 42.0895 13.1253 35.9995 13.1253 28.5095C13.1253 22.7079 15.43 17.1439 19.5324 13.0416C23.6347 8.9392 29.1987 6.63452 35.0003 6.63452ZM35.0003 12.4679C30.7458 12.4679 26.6655 14.158 23.6572 17.1664C20.6488 20.1747 18.9587 24.255 18.9587 28.5095C18.9587 33.8062 21.8637 38.5079 25.6087 42.3345C28.4262 45.2162 31.5295 47.4095 33.6791 48.757L35.0003 49.5562L36.3216 48.757C38.4682 47.4095 41.5745 45.2162 44.392 42.3374C48.137 38.5079 51.042 33.8062 51.042 28.5095C51.042 24.255 49.3519 20.1747 46.3435 17.1664C43.3351 14.158 39.2548 12.4679 35.0003 12.4679ZM35.0003 19.7595C36.1494 19.7595 37.2872 19.9858 38.3488 20.4256C39.4104 20.8653 40.375 21.5098 41.1875 22.3223C42 23.1348 42.6445 24.0994 43.0843 25.161C43.524 26.2226 43.7503 27.3605 43.7503 28.5095C43.7503 29.6586 43.524 30.7964 43.0843 31.858C42.6445 32.9196 42 33.8842 41.1875 34.6967C40.375 35.5092 39.4104 36.1537 38.3488 36.5935C37.2872 37.0332 36.1494 37.2595 35.0003 37.2595C32.6797 37.2595 30.4541 36.3376 28.8131 34.6967C27.1722 33.0558 26.2503 30.8302 26.2503 28.5095C26.2503 26.1889 27.1722 23.9633 28.8131 22.3223C30.4541 20.6814 32.6797 19.7595 35.0003 19.7595ZM35.0003 25.5929C34.2268 25.5929 33.4849 25.9001 32.9379 26.4471C32.391 26.9941 32.0837 27.736 32.0837 28.5095C32.0837 29.2831 32.391 30.0249 32.9379 30.5719C33.4849 31.1189 34.2268 31.4262 35.0003 31.4262C35.7739 31.4262 36.5157 31.1189 37.0627 30.5719C37.6097 30.0249 37.917 29.2831 37.917 28.5095C37.917 27.736 37.6097 26.9941 37.0627 26.4471C36.5157 25.9001 35.7739 25.5929 35.0003 25.5929Z" fill="#0C5ADB"/>
</g>
<defs>
<clipPath id="clip0_140_571">
<rect width="70" height="70" fill="white" transform="translate(0 0.80127)"/>
</clipPath>
</defs>
</svg>
