<svg width="61" height="67" viewBox="0 0 61 67" fill="none" xmlns="http://www.w3.org/2000/svg">
<path d="M60.4776 7.64493L4.94241 0.827596C2.84341 0.571836 0.982538 2.21223 0.982538 4.32886V62.8274C0.982538 64.7764 2.56119 66.3551 4.51026 66.3551H56.9499C58.899 66.3551 60.4776 64.7764 60.4776 62.8274V7.64493Z" fill="#F05D8A"/>
<path d="M30.73 35.9389C29.763 35.9389 28.8357 35.5548 28.152 34.871C27.4683 34.1873 27.0841 33.26 27.0841 32.293C27.0841 31.3261 27.4683 30.3988 28.152 29.7151C28.8357 29.0313 29.763 28.6472 30.73 28.6472C31.6969 28.6472 32.6242 29.0313 33.308 29.7151C33.9917 30.3988 34.3758 31.3261 34.3758 32.293C34.3758 32.7718 34.2815 33.2459 34.0983 33.6882C33.9151 34.1306 33.6465 34.5325 33.308 34.871C32.9694 35.2096 32.5675 35.4781 32.1252 35.6614C31.6828 35.8446 31.2087 35.9389 30.73 35.9389ZM30.73 22.0847C28.0226 22.0847 25.426 23.1602 23.5116 25.0747C21.5972 26.9891 20.5216 29.5856 20.5216 32.293C20.5216 39.9493 30.73 51.2514 30.73 51.2514C30.73 51.2514 40.9383 39.9493 40.9383 32.293C40.9383 29.5856 39.8628 26.9891 37.9484 25.0747C36.0339 23.1602 33.4374 22.0847 30.73 22.0847Z" fill="white"/>
</svg>
