<svg width="17" height="16" viewBox="0 0 17 16" fill="none" xmlns="http://www.w3.org/2000/svg">
<path d="M5.45431 1.33337H11.0543C13.1876 1.33337 14.921 3.06671 14.921 5.20004V10.8C14.921 11.8255 14.5136 12.809 13.7885 13.5342C13.0633 14.2593 12.0798 14.6667 11.0543 14.6667H5.45431C3.32098 14.6667 1.58765 12.9334 1.58765 10.8V5.20004C1.58765 4.17454 1.99503 3.19104 2.72017 2.46589C3.44531 1.74075 4.42881 1.33337 5.45431 1.33337ZM5.32098 2.66671C4.68446 2.66671 4.07401 2.91956 3.62392 3.36965C3.17384 3.81974 2.92098 4.43019 2.92098 5.06671V10.9334C2.92098 12.26 3.99431 13.3334 5.32098 13.3334H11.1876C11.8242 13.3334 12.4346 13.0805 12.8847 12.6304C13.3348 12.1803 13.5876 11.5699 13.5876 10.9334V5.06671C13.5876 3.74004 12.5143 2.66671 11.1876 2.66671H5.32098ZM11.7543 3.66671C11.9753 3.66671 12.1873 3.7545 12.3436 3.91078C12.4998 4.06707 12.5876 4.27903 12.5876 4.50004C12.5876 4.72105 12.4998 4.93302 12.3436 5.0893C12.1873 5.24558 11.9753 5.33337 11.7543 5.33337C11.5333 5.33337 11.3213 5.24558 11.1651 5.0893C11.0088 4.93302 10.921 4.72105 10.921 4.50004C10.921 4.27903 11.0088 4.06707 11.1651 3.91078C11.3213 3.7545 11.5333 3.66671 11.7543 3.66671ZM8.25431 4.66671C9.13837 4.66671 9.98621 5.0179 10.6113 5.64302C11.2365 6.26814 11.5876 7.11599 11.5876 8.00004C11.5876 8.8841 11.2365 9.73194 10.6113 10.3571C9.98621 10.9822 9.13837 11.3334 8.25431 11.3334C7.37026 11.3334 6.52241 10.9822 5.89729 10.3571C5.27217 9.73194 4.92098 8.8841 4.92098 8.00004C4.92098 7.11599 5.27217 6.26814 5.89729 5.64302C6.52241 5.0179 7.37026 4.66671 8.25431 4.66671ZM8.25431 6.00004C7.72388 6.00004 7.21517 6.21075 6.8401 6.58583C6.46503 6.9609 6.25431 7.46961 6.25431 8.00004C6.25431 8.53047 6.46503 9.03918 6.8401 9.41425C7.21517 9.78933 7.72388 10 8.25431 10C8.78475 10 9.29345 9.78933 9.66853 9.41425C10.0436 9.03918 10.2543 8.53047 10.2543 8.00004C10.2543 7.46961 10.0436 6.9609 9.66853 6.58583C9.29345 6.21075 8.78475 6.00004 8.25431 6.00004Z" fill="white"/>
</svg>
