<svg width="41" height="41" viewBox="0 0 41 41" fill="none" xmlns="http://www.w3.org/2000/svg">
<circle cx="20.8419" cy="20.1586" r="20" transform="rotate(-180 20.8419 20.1586)" fill="white"/>
<path d="M28.3213 20.9539C28.5319 20.743 28.6503 20.457 28.6503 20.1589C28.6503 19.8608 28.5319 19.5748 28.3213 19.3639L24.0793 15.1196C23.8682 14.9086 23.582 14.79 23.2835 14.79C22.985 14.79 22.6988 14.9086 22.4878 15.1196C22.2767 15.3307 22.1581 15.6169 22.1581 15.9154C22.1581 16.2139 22.2767 16.5001 22.4878 16.7111L24.8098 19.0339L14.1585 19.0339C13.8601 19.0339 13.574 19.1524 13.363 19.3634C13.152 19.5744 13.0335 19.8605 13.0335 20.1589C13.0335 20.4573 13.152 20.7434 13.363 20.9544C13.574 21.1654 13.8601 21.2839 14.1585 21.2839L24.8098 21.2839L22.4878 23.6059C22.3833 23.7104 22.3004 23.8345 22.2438 23.971C22.1873 24.1075 22.1581 24.2539 22.1581 24.4016C22.1581 24.5494 22.1873 24.6958 22.2438 24.8323C22.3004 24.9688 22.3833 25.0929 22.4878 25.1974C22.5923 25.3019 22.7163 25.3848 22.8529 25.4413C22.9894 25.4979 23.1357 25.527 23.2835 25.527C23.4313 25.527 23.5776 25.4979 23.7142 25.4413C23.8507 25.3848 23.9748 25.3019 24.0793 25.1974L28.3213 20.9539Z" fill="#363636"/>
</svg>
