<svg width="41" height="41" viewBox="0 0 41 41" fill="none" xmlns="http://www.w3.org/2000/svg">
<circle cx="20.1581" cy="20.1586" r="20" fill="white"/>
<path d="M12.6787 19.3632C12.4681 19.5742 12.3497 19.8601 12.3497 20.1582C12.3497 20.4564 12.4681 20.7423 12.6787 20.9532L16.9207 25.1975C17.1318 25.4085 17.418 25.5271 17.7165 25.5271C18.015 25.5271 18.3012 25.4085 18.5122 25.1975C18.7233 24.9864 18.8419 24.7002 18.8419 24.4017C18.8419 24.1033 18.7233 23.817 18.5122 23.606L16.1902 21.2832L26.8415 21.2832C27.1399 21.2832 27.426 21.1647 27.637 20.9537C27.848 20.7428 27.9665 20.4566 27.9665 20.1582C27.9665 19.8599 27.848 19.5737 27.637 19.3627C27.426 19.1518 27.1399 19.0332 26.8415 19.0332L16.1902 19.0332L18.5122 16.7112C18.6167 16.6067 18.6996 16.4827 18.7562 16.3461C18.8127 16.2096 18.8419 16.0633 18.8419 15.9155C18.8419 15.7677 18.8127 15.6214 18.7562 15.4848C18.6996 15.3483 18.6167 15.2242 18.5122 15.1197C18.4077 15.0152 18.2837 14.9323 18.1471 14.8758C18.0106 14.8192 17.8643 14.7901 17.7165 14.7901C17.5687 14.7901 17.4224 14.8192 17.2858 14.8758C17.1493 14.9323 17.0252 15.0152 16.9207 15.1197L12.6787 19.3632Z" fill="#363636"/>
</svg>
