<svg width="17" height="16" viewBox="0 0 17 16" fill="none" xmlns="http://www.w3.org/2000/svg">
<path d="M4.88102 3.33339C4.88085 3.68701 4.7402 4.02608 4.49003 4.276C4.23985 4.52593 3.90064 4.66623 3.54702 4.66606C3.1934 4.66588 2.85433 4.52523 2.60441 4.27506C2.35448 4.02489 2.21418 3.68568 2.21436 3.33206C2.21453 2.97843 2.35518 2.63937 2.60535 2.38944C2.85552 2.13952 3.19473 1.99921 3.54836 1.99939C3.90198 1.99957 4.24105 2.14021 4.49097 2.39039C4.74089 2.64056 4.8812 2.97977 4.88102 3.33339ZM4.92102 5.65339H2.25436V14.0001H4.92102V5.65339ZM9.13436 5.65339H6.48102V14.0001H9.10769V9.62006C9.10769 7.18006 12.2877 6.95339 12.2877 9.62006V14.0001H14.921V8.71339C14.921 4.60006 10.2144 4.75339 9.10769 6.77339L9.13436 5.65339Z" fill="white"/>
</svg>
