<svg width="17" height="16" viewBox="0 0 17 16" fill="none" xmlns="http://www.w3.org/2000/svg">
<path d="M10.4878 3.70004C9.98127 3.69995 9.49489 3.89869 9.13334 4.25351C8.77179 4.60833 8.56394 5.09088 8.55451 5.59737L8.53584 6.64737C8.53484 6.7038 8.52191 6.75938 8.49789 6.81046C8.47388 6.86154 8.43933 6.90696 8.39651 6.94373C8.35369 6.98051 8.30358 7.0078 8.24946 7.02382C8.19534 7.03985 8.13844 7.04424 8.08251 7.0367L7.04117 6.8947C5.67251 6.70804 4.36051 6.07804 3.10117 5.02937C2.70317 7.23604 3.48117 8.7647 5.35651 9.94404L6.52117 10.676C6.57641 10.7108 6.62232 10.7585 6.65487 10.8151C6.68743 10.8716 6.70565 10.9353 6.70796 11.0005C6.71026 11.0657 6.69657 11.1305 6.66808 11.1893C6.63959 11.248 6.59716 11.2988 6.54451 11.3374L5.48317 12.1134C6.11451 12.1534 6.71384 12.1254 7.21117 12.0267C10.3565 11.3987 12.4478 9.03204 12.4478 5.12804C12.4478 4.80937 11.7725 3.70004 10.4878 3.70004ZM7.22117 5.57337C7.23281 4.93074 7.43377 4.30582 7.79888 3.77685C8.16399 3.24788 8.67704 2.83838 9.27378 2.59961C9.87053 2.36085 10.5244 2.30342 11.1537 2.43453C11.7829 2.56565 12.3595 2.87947 12.8112 3.3367C13.2852 3.33337 13.6885 3.45337 14.5898 2.90604C14.3672 3.99937 14.2565 4.4747 13.7812 5.12737C13.7812 10.2214 10.6498 12.6994 7.47184 13.3334C5.29384 13.768 2.12517 13.054 1.21851 12.1054C1.68051 12.07 3.56051 11.868 4.64717 11.072C3.72717 10.4654 0.0685058 8.31204 2.47317 2.52404C3.60184 3.84204 4.74651 4.7387 5.90651 5.21537C6.67784 5.53204 6.86784 5.52537 7.22184 5.57404L7.22117 5.57337Z" fill="white"/>
</svg>
