<svg width="13" height="13" viewBox="0 0 13 13" fill="none" xmlns="http://www.w3.org/2000/svg">
<path d="M11.1168 10.8293L8.91152 8.6241C9.44244 7.9173 9.72905 7.05699 9.72808 6.173C9.72808 3.91503 7.89105 2.078 5.63309 2.078C3.37512 2.078 1.53809 3.91503 1.53809 6.173C1.53809 8.43097 3.37512 10.268 5.63309 10.268C6.51707 10.269 7.37739 9.98236 8.08418 9.45144L10.2894 11.6567C10.401 11.7565 10.5466 11.8097 10.6963 11.8055C10.846 11.8013 10.9884 11.74 11.0942 11.6341C11.2001 11.5283 11.2614 11.3859 11.2656 11.2362C11.2698 11.0866 11.2165 10.941 11.1168 10.8293ZM2.70809 6.173C2.70809 5.59449 2.87963 5.02897 3.20104 4.54796C3.52244 4.06695 3.97926 3.69204 4.51374 3.47066C5.04821 3.24927 5.63633 3.19134 6.20372 3.30421C6.77112 3.41707 7.2923 3.69565 7.70137 4.10472C8.11044 4.51378 8.38902 5.03497 8.50188 5.60236C8.61474 6.16976 8.55682 6.75788 8.33543 7.29235C8.11405 7.82682 7.73914 8.28365 7.25813 8.60505C6.77711 8.92645 6.2116 9.098 5.63309 9.098C4.85761 9.09707 4.11417 8.7886 3.56583 8.24026C3.01748 7.69192 2.70902 6.94847 2.70809 6.173Z" fill="#0078F3"/>
</svg>
