<svg width="82" height="90" viewBox="0 0 82 90" fill="none" xmlns="http://www.w3.org/2000/svg">
<path d="M0.626953 9.88496L75.9989 0.632532C78.8476 0.285416 81.3732 2.51174 81.3732 5.38442V84.7781C81.3732 87.4234 79.2307 89.5659 76.5854 89.5659H5.41475C2.76949 89.5659 0.626953 87.4234 0.626953 84.7781V9.88496Z" fill="#FF9A62"/>
<g clip-path="url(#clip0_5_13)">
<path d="M47.4572 59.6211C47.778 61.2352 48.3456 62.6587 49.3285 63.8906C49.7155 64.3757 49.9173 64.8615 49.6414 65.4448C49.3665 66.0259 48.8664 66.2 48.2448 66.1985C43.3972 66.1887 38.5499 66.1887 33.7022 66.1982C33.0934 66.1992 32.6185 66.0032 32.3575 65.4451C32.0966 64.8871 32.2539 64.3928 32.6368 63.9245C33.5752 62.7773 34.111 61.4341 34.4673 60.0113C34.4939 59.9054 34.4885 59.7919 34.5034 59.6204C34.3052 59.6204 34.1329 59.6204 33.9603 59.6204C29.2097 59.6196 24.4592 59.6189 19.7082 59.6178C18.3997 59.6178 18 59.2203 18 57.9242C18 48.8913 18 39.8589 18.0007 30.8261C18.0007 29.6529 18.4428 29.2029 19.5973 29.2029C33.8654 29.201 48.1335 29.201 62.4016 29.201C63.5273 29.201 63.9989 29.6679 63.9989 30.7819C64 39.8954 64 49.0089 63.9996 58.1224C63.9996 59.1448 63.5196 59.6163 62.4768 59.6167C57.6777 59.6189 52.8786 59.6193 48.0795 59.6204C47.8915 59.6204 47.7032 59.6204 47.4572 59.6204V59.6211ZM61.4106 57C61.4106 56.5769 61.4106 56.2083 61.4106 55.8396C61.4099 48.035 61.4092 40.2305 61.4084 32.4263C61.4084 31.7919 61.4074 31.7897 60.7792 31.7897C47.5776 31.7897 34.376 31.7919 21.1745 31.7802C20.712 31.7798 20.5777 31.901 20.5784 32.3708C20.5915 40.4177 20.5868 48.4647 20.5872 56.5116C20.5872 56.6675 20.6036 56.8233 20.6127 56.9901H52.5118C52.7454 55.7334 53.0691 55.352 53.8732 55.3571C54.662 55.3622 55.0062 55.7725 55.2329 56.9919H56.5531C56.6535 55.905 57.0211 55.418 57.7598 55.3622C58.5939 55.299 58.9275 55.6582 59.264 57.0003H61.4103L61.4106 57Z" fill="white"/>
<path d="M46.2756 40.2111V53.2754H26.535V40.2111H46.2756Z" fill="white"/>
<path d="M55.4807 35.4299V38.2291H26.5361V35.4299H55.4807Z" fill="white"/>
<path d="M50.2071 40.2111H55.4614V53.2765H50.2071V40.2111Z" fill="white"/>
</g>
<defs>
<clipPath id="clip0_5_13">
<rect width="46" height="36.9978" fill="white" transform="translate(18 29.201)"/>
</clipPath>
</defs>
</svg>
