<svg width="71" height="71" viewBox="0 0 71 71" fill="none" xmlns="http://www.w3.org/2000/svg">
<path d="M25.6569 35.8013H35.8652V21.2179M9.61523 35.8013C9.61523 39.2485 10.2942 42.6619 11.6134 45.8467C12.9326 49.0315 14.8661 51.9253 17.3037 54.3628C19.7412 56.8004 22.635 58.7339 25.8198 60.0531C29.0046 61.3723 32.418 62.0513 35.8652 62.0513C39.3124 62.0513 42.7259 61.3723 45.9107 60.0531C49.0955 58.7339 51.9892 56.8004 54.4268 54.3628C56.8643 51.9253 58.7979 49.0315 60.1171 45.8467C61.4363 42.6619 62.1152 39.2485 62.1152 35.8013C62.1152 32.3541 61.4363 28.9406 60.1171 25.7558C58.7979 22.571 56.8643 19.6773 54.4268 17.2397C51.9892 14.8022 49.0955 12.8686 45.9107 11.5494C42.7259 10.2302 39.3124 9.55127 35.8652 9.55127C32.418 9.55127 29.0046 10.2302 25.8198 11.5494C22.635 12.8686 19.7412 14.8022 17.3037 17.2397C14.8661 19.6773 12.9326 22.571 11.6134 25.7558C10.2942 28.9406 9.61523 32.3541 9.61523 35.8013Z" stroke="#0C5ADB" stroke-width="5" stroke-linecap="round" stroke-linejoin="round"/>
</svg>
