<svg width="64" height="71" viewBox="0 0 64 71" fill="none" xmlns="http://www.w3.org/2000/svg">
<g clip-path="url(#clip0_140_282)">
<path d="M58.7973 64.1946C58.8323 64.0566 58.8643 63.9891 58.8643 63.9216C58.8686 59.069 58.8766 54.2165 58.8662 49.3639C58.8645 48.5728 58.5362 48.3146 57.6543 48.3144C48.3576 48.3125 39.0606 48.3125 29.7639 48.3144C28.7908 48.3146 28.529 48.5782 28.5266 49.5541C28.5222 51.3078 28.5293 53.0614 28.5234 54.8151C28.5203 55.6972 28.0944 56.2202 27.4147 56.2061C26.7528 56.1923 26.3698 55.7023 26.3638 54.847C26.3585 54.0826 26.3626 53.3183 26.3626 52.5033C26.0208 52.4746 25.7399 52.447 25.4586 52.4281C19.0656 51.9981 14.0111 49.1721 10.3119 43.9424C10.0545 43.5785 9.82394 43.5 9.41856 43.641C8.87607 43.8297 8.31106 43.9528 7.75782 44.1117C4.33112 45.0964 2.30508 47.7743 2.29894 51.3415C2.29366 54.4404 2.30014 57.5394 2.30167 60.6383C2.3027 62.6321 2.29724 64.6261 2.30798 66.6199C2.3131 67.5846 2.7809 68.2593 3.63872 68.2948C5.2865 68.3628 6.93905 68.3146 8.67534 68.3146C8.67534 68.0028 8.67534 67.7453 8.67534 67.4878C8.67534 65.8541 8.66971 64.2207 8.6779 62.5871C8.68216 61.7078 9.11568 61.181 9.79069 61.1975C10.4485 61.2137 10.8327 61.7028 10.8361 62.5618C10.8426 64.2193 10.8366 65.877 10.8399 67.5345C10.8404 67.7881 10.8631 68.0415 10.8743 68.2719H23.5993C23.4647 66.1018 24.1733 64.8142 25.8116 64.373C26.32 64.236 26.3769 64.0044 26.3696 63.5757C26.35 62.4471 26.349 61.3174 26.3721 60.1887C26.3854 59.5408 26.805 59.1348 27.3976 59.1177C27.9911 59.1007 28.4408 59.4866 28.5092 60.113C28.5455 60.4456 28.5244 60.7848 28.5247 61.1211C28.5261 62.1435 28.5252 63.1661 28.5252 64.1946H58.7975H58.7973ZM22.6267 32.3355C23.6656 32.783 24.7015 33.2262 25.7828 33.4588C27.328 33.7912 28.714 33.1387 30.0299 32.4277C33.4539 30.5777 36.0141 27.9848 36.393 23.9269C36.6176 21.5223 36.4415 19.0799 36.4415 16.6546C36.4415 16.6187 36.3884 16.5825 36.3253 16.502C34.6804 16.502 32.9996 16.555 31.324 16.4834C30.2063 16.4357 29.0701 16.3148 27.9882 16.0433C25.5454 15.4302 23.5374 14.0605 21.8303 12.1077C20.7576 14.362 19.1195 15.7873 16.7575 16.3589C16.5849 16.4007 16.3746 16.7563 16.3741 16.9664C16.3675 19.2007 16.3641 21.4363 16.4398 23.6689C16.4676 24.4866 16.7079 25.297 16.8423 26.0599C17.617 29.4864 22.6267 32.3355 22.6267 32.3355ZM31.6271 33.9763C28.1277 36.1972 24.7245 36.2056 21.2494 33.9821C21.2494 34.6884 21.2659 35.1876 21.2451 35.6851C21.219 36.3069 21.246 36.9474 21.1033 37.5448C20.6372 39.4952 19.4222 40.8104 17.4992 41.3969C15.7682 41.9247 14.0154 42.3807 12.2511 42.8743C15.4575 47.7869 21.7614 50.5108 26.3322 50.2084C26.342 50.0014 26.359 49.7901 26.3611 49.5788C26.3819 47.3466 27.5721 46.1524 29.7847 46.1511C32.2098 46.1495 34.6349 46.153 37.0598 46.147C37.293 46.1465 37.6133 46.1821 37.7454 46.0515C38.752 45.0574 39.722 44.0261 40.8218 42.8832C38.9897 42.384 37.4209 41.9513 35.8492 41.5297C33.1442 40.8041 31.6557 38.8909 31.6276 36.085C31.6213 35.4475 31.6265 34.81 31.6265 33.9766L31.6271 33.9763ZM40.4831 14.3346C40.4013 13.972 40.3476 13.6956 40.2759 13.4237C38.231 5.65298 30.3459 1.09422 22.5986 3.20229C21.3701 3.53655 21.2497 3.70163 21.2883 4.99792C21.4377 10.0103 25.9366 14.3472 30.9892 14.3457C33.8693 14.3448 36.7495 14.3385 39.6294 14.3346C39.8883 14.3342 40.1472 14.3346 40.483 14.3346H40.4831ZM43.6015 68.3388C49.1027 68.3388 54.6038 68.3389 60.105 68.3381C60.345 68.3381 60.59 68.3575 60.8239 68.3168C61.327 68.2289 61.6653 67.9313 61.6841 67.4039C61.7042 66.8406 61.3745 66.5136 60.8344 66.4132C60.6245 66.3741 60.404 66.3837 60.1882 66.3837C49.1859 66.3825 38.1835 66.3823 27.1812 66.3845C26.9423 66.3845 26.6322 66.3257 26.4796 66.4487C26.1738 66.6951 25.7558 67.0476 25.7546 67.3576C25.7534 67.6701 26.1602 68.0383 26.4695 68.2764C26.6413 68.4085 26.9791 68.3369 27.2421 68.3369C32.6952 68.3393 38.1484 68.3386 43.6015 68.3386V68.3388ZM40.8566 25.0351C40.4461 25.0136 40.2575 24.997 40.0687 24.9952C39.661 24.9911 39.2472 24.9546 38.8481 25.0134C38.6735 25.0392 38.4226 25.2431 38.3863 25.4062C37.7657 28.186 36.2424 30.3961 34.1441 32.2579C33.9938 32.3912 33.8102 32.5932 33.8059 32.7673C33.7762 33.9587 33.7904 35.1513 33.7904 36.3425C33.9756 36.378 34.0673 36.4097 34.1598 36.4114C37.1245 36.4634 39.9273 34.4647 40.4623 31.5377C40.8452 29.4422 40.7401 27.2578 40.8568 25.0349L40.8566 25.0351ZM18.8639 4.83932C15.4539 7.0151 13.2486 10.1473 12.3609 14.3189C13.4611 14.3189 14.4884 14.3515 15.5131 14.3121C17.6175 14.2312 19.4365 12.7767 19.9789 10.7539C20.089 10.3432 20.2215 9.87457 20.1279 9.48437C19.758 7.94216 19.3023 6.42042 18.864 4.83915L18.8639 4.83932ZM19.083 36.3226C19.083 35.3399 19.0844 34.3405 19.0827 33.3412C19.081 32.3031 19.0651 32.2753 18.0446 32.2754C16.6596 32.2758 15.5801 31.7686 14.9155 30.4996C14.8409 30.3574 14.6622 30.1803 14.5258 30.1749C13.7406 30.1438 12.9536 30.1597 12.1679 30.1597C12.1861 33.7329 15.6897 36.8668 19.0828 36.3224L19.083 36.3226ZM38.6773 16.5359V22.7756H40.6912V16.5359H38.6773ZM12.1547 16.5411V22.7807H14.1694V16.5411H12.1547ZM48.576 46.1127C48.4186 45.9328 48.3477 45.839 48.2641 45.758C46.828 44.3672 44.946 44.0016 43.1112 43.5345C43.0066 43.5078 42.8202 43.5764 42.7532 43.6632C42.1466 44.4513 41.5582 45.2533 40.9187 46.1127H48.576ZM12.1626 25.0329V27.9947C12.9783 27.9947 13.7413 27.9959 14.5045 27.9943C15.0043 27.9933 15.12 27.63 15.0313 27.2733C14.8428 26.5156 14.5722 25.7785 14.3353 25.0329H12.1628H12.1626ZM9.89693 27.9094V24.9075L9.94656 22.5835C9.94656 20.7586 9.91654 19.0574 9.95765 17.3581C9.98306 16.3055 10.0368 15.2419 10.2136 14.2063C11.5514 6.37744 18.0084 0.838745 26.1044 0.536374C33.6122 0.256003 40.5734 5.5573 42.3782 13.0277C42.7297 14.4823 42.8134 16.0151 42.891 17.5186C42.976 19.1623 42.9103 20.8137 42.9103 22.5936L42.9001 25.6813C42.9321 26.9535 42.9152 28.2271 42.9101 29.5002C42.89 34.4282 39.7964 37.9441 34.8495 38.7267C35.2862 38.9407 35.7027 39.2276 36.1631 39.357C39.1868 40.2068 42.214 41.0461 45.2522 41.842C47.6904 42.4807 49.6945 43.7176 51.162 45.7991C51.3022 45.9981 51.668 46.1313 51.9314 46.1352C53.8526 46.1632 55.7744 46.1477 57.6961 46.1511C59.7735 46.1547 61.0259 47.373 61.0324 49.4521C61.0469 54.112 61.0462 58.7719 61.0258 63.4318C61.0234 63.9876 61.1399 64.2531 61.7294 64.4274C63.1529 64.8485 64.0178 66.2791 63.8433 67.7248C63.6618 69.2275 62.4488 70.3655 60.8847 70.4895C60.5981 70.5122 60.3086 70.5009 60.0204 70.5009C41.6212 70.5012 23.2217 70.4818 4.82245 70.5256C2.50104 70.5313 0.868437 69.7947 0.134766 67.4999C0.134766 61.6847 0.134766 55.8696 0.134766 50.0544C0.176378 49.9202 0.230951 49.7886 0.257897 49.6515C1.05075 45.6023 3.44823 43.0534 7.42032 41.9631C10.4481 41.132 13.4754 40.2991 16.495 39.4391C17.0375 39.2845 17.5415 38.9946 18.0632 38.7671C18.0419 38.7008 18.0205 38.6346 17.9992 38.5683C15.8112 38.3614 13.9337 37.499 12.4037 35.9262C10.854 34.3332 10.0961 32.3817 9.93548 30.1875L9.8971 27.9094H9.89693Z" fill="#0C5ADB"/>
</g>
<defs>
<clipPath id="clip0_140_282">
<rect width="63.7307" height="70" fill="white" transform="translate(0.134766 0.525757)"/>
</clipPath>
</defs>
</svg>
