<svg width="26" height="26" viewBox="0 0 26 26" fill="none" xmlns="http://www.w3.org/2000/svg">
<path d="M12.5505 0.342285C5.64696 0.342285 0.0505371 5.93871 0.0505371 12.8423C0.0505371 19.7459 5.64696 25.3423 12.5505 25.3423C19.4541 25.3423 25.0505 19.7459 25.0505 12.8423C25.0505 5.93871 19.4541 0.342285 12.5505 0.342285ZM17.8448 10.1229C18.0156 13.9655 15.1517 18.2548 10.0742 18.2548C8.53057 18.2548 7.09205 17.8016 5.88343 17.0265C7.33509 17.1972 8.78017 16.7966 9.92967 15.8967C8.73419 15.877 7.72263 15.0822 7.3745 13.9983C7.80146 14.0772 8.22184 14.0575 8.60939 13.9524C7.29568 13.6896 6.38921 12.5073 6.41549 11.2395C6.78333 11.4432 7.20372 11.568 7.65695 11.5811C6.44176 10.7666 6.09363 9.16388 6.8096 7.92899C8.15616 9.58427 10.1727 10.6681 12.4454 10.7863C12.0448 9.07849 13.3453 7.42977 15.1057 7.42977C15.8939 7.42977 16.6033 7.75821 17.1026 8.29027C17.7266 8.16546 18.3112 7.94212 18.8367 7.62683C18.633 8.26398 18.1995 8.80261 17.6346 9.13761C18.1864 9.07192 18.7119 8.92742 19.2045 8.71065C18.8367 9.26241 18.3769 9.74192 17.8382 10.1229H17.8448Z" fill="white"/>
</svg>
