<svg width="26" height="26" viewBox="0 0 26 26" fill="none" xmlns="http://www.w3.org/2000/svg">
<path d="M12.5505 0.342285C5.64696 0.342285 0.0505371 5.93871 0.0505371 12.8423C0.0505371 19.7459 5.64696 25.3423 12.5505 25.3423C19.4541 25.3423 25.0505 19.7459 25.0505 12.8423C25.0505 5.93871 19.4541 0.342285 12.5505 0.342285ZM19.3162 16.2645C19.152 16.8754 18.6724 17.3549 18.0681 17.5191C16.9646 17.8147 12.5505 17.8147 12.5505 17.8147C12.5505 17.8147 8.13645 17.8147 7.03293 17.5191C6.42862 17.3549 5.94912 16.8754 5.7849 16.2645C5.48932 15.1544 5.48932 12.8423 5.48932 12.8423C5.48932 12.8423 5.48932 10.5302 5.7849 9.42006C5.94912 8.80918 6.42862 8.32968 7.03293 8.16546C8.13645 7.86988 12.5505 7.86988 12.5505 7.86988C12.5505 7.86988 16.9646 7.86988 18.0681 8.16546C18.6724 8.32968 19.152 8.80918 19.3162 9.42006C19.6118 10.5302 19.6118 12.8423 19.6118 12.8423C19.6118 12.8423 19.6118 15.1544 19.3162 16.2645Z" fill="white"/>
<path d="M11.1052 14.9444L14.7968 12.8424L11.1052 10.7405V14.9444Z" fill="white"/>
</svg>
